<svg id="Capa_1" data-name="Capa 1" xmlns="http://www.w3.org/2000/svg" xmlns:xlink="http://www.w3.org/1999/xlink" viewBox="0 0 61.82 62.43"><defs><style>.cls-1,.cls-13,.cls-7{fill:none;}.cls-2{clip-path:url(#clip-path);}.cls-3{clip-path:url(#clip-path-3);}.cls-4{opacity:0.6;}.cls-5{clip-path:url(#clip-path-4);}.cls-6{clip-path:url(#clip-path-5);}.cls-7{stroke:#e5e4e4;stroke-width:0.75px;}.cls-13,.cls-7{stroke-miterlimit:10;}.cls-8{clip-path:url(#clip-path-6);}.cls-9{clip-path:url(#clip-path-7);}.cls-10{clip-path:url(#clip-path-8);}.cls-11{fill:#666;}.cls-12{fill:#b7b7b7;}.cls-13{stroke:#666;stroke-width:0.71px;}</style><clipPath id="clip-path"><rect class="cls-1" x="422.2" y="-388.41" width="1920" height="3660"/></clipPath><clipPath id="clip-path-3"><rect class="cls-1" x="-1761.35" y="281.2" width="1917.36" height="702"/></clipPath><clipPath id="clip-path-4"><rect class="cls-1" x="-2437.38" y="36.62" width="3365.43" height="1241.53"/></clipPath><clipPath id="clip-path-5"><rect class="cls-1" x="-2437.38" y="36.62" width="3365.43" height="1241.53"/></clipPath><clipPath id="clip-path-6"><rect class="cls-1" x="423.65" y="302.2" width="1917.36" height="702"/></clipPath><clipPath id="clip-path-7"><rect class="cls-1" x="-252.38" y="57.62" width="3365.43" height="1241.53"/></clipPath><clipPath id="clip-path-8"><rect class="cls-1" x="-252.38" y="57.62" width="3365.43" height="1241.53"/></clipPath></defs><title>Control de acceso</title><g class="cls-2"><g class="cls-2"><g class="cls-3"><g class="cls-4"><g class="cls-5"><g class="cls-6"><line class="cls-7" x1="-805.72" y1="1277.89" x2="435.29" y2="36.88"/><line class="cls-7" x1="-774.94" y1="1277.89" x2="466.07" y2="36.88"/><line class="cls-7" x1="-744.15" y1="1277.89" x2="496.85" y2="36.88"/><line class="cls-7" x1="-713.38" y1="1277.89" x2="527.63" y2="36.88"/><line class="cls-7" x1="-682.59" y1="1277.89" x2="558.41" y2="36.88"/><line class="cls-7" x1="-651.81" y1="1277.89" x2="589.19" y2="36.88"/><line class="cls-7" x1="-621.03" y1="1277.89" x2="619.97" y2="36.88"/><line class="cls-7" x1="-590.25" y1="1277.89" x2="650.75" y2="36.88"/><line class="cls-7" x1="-559.47" y1="1277.89" x2="681.53" y2="36.88"/><line class="cls-7" x1="-528.69" y1="1277.89" x2="712.32" y2="36.88"/><line class="cls-7" x1="-497.91" y1="1277.89" x2="743.1" y2="36.88"/><line class="cls-7" x1="-467.12" y1="1277.89" x2="773.88" y2="36.88"/><line class="cls-7" x1="-436.35" y1="1277.89" x2="804.66" y2="36.88"/><line class="cls-7" x1="-405.56" y1="1277.89" x2="835.44" y2="36.88"/><line class="cls-7" x1="-374.78" y1="1277.89" x2="866.22" y2="36.88"/><line class="cls-7" x1="-344" y1="1277.89" x2="897" y2="36.88"/><line class="cls-7" x1="-313.22" y1="1277.89" x2="927.78" y2="36.88"/></g></g></g></g></g><g class="cls-8"><g class="cls-4"><g class="cls-9"><g class="cls-10"><line class="cls-7" x1="-252.11" y1="1298.89" x2="988.89" y2="57.88"/><line class="cls-7" x1="-221.33" y1="1298.89" x2="1019.67" y2="57.88"/><line class="cls-7" x1="-190.55" y1="1298.89" x2="1050.45" y2="57.88"/><line class="cls-7" x1="-159.77" y1="1298.89" x2="1081.23" y2="57.88"/><line class="cls-7" x1="-128.99" y1="1298.89" x2="1112.02" y2="57.88"/><line class="cls-7" x1="-98.21" y1="1298.89" x2="1142.8" y2="57.88"/><line class="cls-7" x1="-67.43" y1="1298.89" x2="1173.57" y2="57.88"/><line class="cls-7" x1="-36.65" y1="1298.89" x2="1204.36" y2="57.88"/><line class="cls-7" x1="-5.87" y1="1298.89" x2="1235.14" y2="57.88"/><line class="cls-7" x1="24.92" y1="1298.89" x2="1265.92" y2="57.88"/><line class="cls-7" x1="55.7" y1="1298.89" x2="1296.7" y2="57.88"/></g></g></g></g></g><rect class="cls-11" width="14.81" height="62.43"/><rect class="cls-11" x="47.01" width="14.81" height="62.43"/><rect class="cls-12" x="14.02" y="12.7" width="16.93" height="33.86"/><rect class="cls-13" x="14.02" y="12.7" width="16.93" height="33.86"/><rect class="cls-12" x="30.98" y="12.7" width="16.93" height="33.86"/><rect class="cls-13" x="30.98" y="12.7" width="16.93" height="33.86"/></svg>