<svg id="Capa_1" data-name="Capa 1" xmlns="http://www.w3.org/2000/svg" xmlns:xlink="http://www.w3.org/1999/xlink" viewBox="0 0 100.28 80.91"><defs><style>.cls-1,.cls-10,.cls-20{fill:none;}.cls-2{clip-path:url(#clip-path);}.cls-3{clip-path:url(#clip-path-3);}.cls-4{opacity:0.6;}.cls-5{clip-path:url(#clip-path-4);}.cls-6{fill:#9e9e9e;}.cls-7{fill:#666;}.cls-8{opacity:0.47;}.cls-9{clip-path:url(#clip-path-5);}.cls-10{stroke:#b3b3b3;stroke-width:0.76px;}.cls-10,.cls-20{stroke-miterlimit:10;}.cls-11{clip-path:url(#clip-path-6);}.cls-12{clip-path:url(#clip-path-7);}.cls-13{clip-path:url(#clip-path-8);}.cls-14{clip-path:url(#clip-path-9);}.cls-15{clip-path:url(#clip-path-10);}.cls-16{clip-path:url(#clip-path-11);}.cls-17{clip-path:url(#clip-path-12);}.cls-18{clip-path:url(#clip-path-13);}.cls-19{clip-path:url(#clip-path-14);}.cls-20{stroke:#9e9e9e;stroke-width:0.76px;}</style><clipPath id="clip-path"><rect class="cls-1" x="1876.8" y="-570.4" width="1920" height="3660"/></clipPath><clipPath id="clip-path-3"><rect class="cls-1" x="-306.75" y="99.21" width="1917.36" height="702"/></clipPath><clipPath id="clip-path-4"><rect class="cls-1" x="-982.78" y="-145.37" width="3365.43" height="1241.53"/></clipPath><clipPath id="clip-path-5"><rect class="cls-1" x="12.91" y="15.19" width="75.21" height="0.76"/></clipPath><clipPath id="clip-path-6"><rect class="cls-1" x="12.91" y="22.41" width="75.21" height="0.76"/></clipPath><clipPath id="clip-path-7"><rect class="cls-1" x="12.91" y="29.63" width="75.21" height="0.76"/></clipPath><clipPath id="clip-path-8"><rect class="cls-1" x="12.91" y="36.85" width="75.21" height="0.76"/></clipPath><clipPath id="clip-path-9"><rect class="cls-1" x="12.91" y="44.06" width="75.21" height="0.76"/></clipPath><clipPath id="clip-path-10"><rect class="cls-1" x="12.91" y="51.28" width="75.21" height="0.76"/></clipPath><clipPath id="clip-path-11"><rect class="cls-1" x="12.91" y="58.5" width="75.21" height="0.76"/></clipPath><clipPath id="clip-path-12"><rect class="cls-1" x="12.91" y="65.72" width="75.21" height="0.76"/></clipPath><clipPath id="clip-path-13"><rect class="cls-1" x="12.91" y="72.93" width="75.21" height="0.76"/></clipPath><clipPath id="clip-path-14"><rect class="cls-1" x="12.91" y="80.15" width="75.21" height="0.76"/></clipPath></defs><title>cortinas de acero</title><rect class="cls-6" y="0.38" width="13.68" height="79.77"/><rect class="cls-6" x="86.61" y="0.38" width="13.67" height="79.77"/><rect class="cls-7" x="13.29" y="5.32" width="75.21" height="75.21"/><g class="cls-8"><g class="cls-9"><line class="cls-10" x1="12.91" y1="15.58" x2="88.13" y2="15.58"/></g></g><g class="cls-8"><g class="cls-11"><line class="cls-10" x1="12.91" y1="22.79" x2="88.13" y2="22.79"/></g></g><g class="cls-8"><g class="cls-12"><line class="cls-10" x1="12.91" y1="30.01" x2="88.13" y2="30.01"/></g></g><g class="cls-8"><g class="cls-13"><line class="cls-10" x1="12.91" y1="37.23" x2="88.13" y2="37.23"/></g></g><g class="cls-8"><g class="cls-14"><line class="cls-10" x1="12.91" y1="44.45" x2="88.13" y2="44.45"/></g></g><g class="cls-8"><g class="cls-15"><line class="cls-10" x1="12.91" y1="51.66" x2="88.13" y2="51.66"/></g></g><g class="cls-8"><g class="cls-16"><line class="cls-10" x1="12.91" y1="58.88" x2="88.13" y2="58.88"/></g></g><g class="cls-8"><g class="cls-17"><line class="cls-10" x1="12.91" y1="66.1" x2="88.13" y2="66.1"/></g></g><g class="cls-8"><g class="cls-18"><line class="cls-10" x1="12.91" y1="73.32" x2="88.13" y2="73.32"/></g></g><g class="cls-8"><g class="cls-19"><line class="cls-10" x1="12.91" y1="80.53" x2="88.13" y2="80.53"/></g></g><rect class="cls-7" x="7.6" y="0.38" width="85.47" height="6.84"/><rect class="cls-20" x="7.6" y="0.38" width="85.47" height="6.84"/></svg>