<svg id="Capa_1" data-name="Capa 1" xmlns="http://www.w3.org/2000/svg" xmlns:xlink="http://www.w3.org/1999/xlink" viewBox="0 0 86.61 72.93"><defs><style>.cls-1,.cls-7{fill:none;}.cls-2{clip-path:url(#clip-path);}.cls-3{clip-path:url(#clip-path-3);}.cls-4{opacity:0.6;}.cls-5{clip-path:url(#clip-path-4);}.cls-6{clip-path:url(#clip-path-5);}.cls-7{stroke:#e5e4e4;stroke-miterlimit:10;stroke-width:0.75px;}.cls-8{fill:#666;}.cls-9{opacity:0.47;}.cls-10{clip-path:url(#clip-path-6);}.cls-11{fill:#b3b3b3;}.cls-12{clip-path:url(#clip-path-7);}</style><clipPath id="clip-path"><rect class="cls-1" x="1243.19" y="-575.34" width="1920" height="3660"/></clipPath><clipPath id="clip-path-3"><rect class="cls-1" x="-940.36" y="94.27" width="1917.36" height="702"/></clipPath><clipPath id="clip-path-4"><rect class="cls-1" x="-1616.39" y="-150.31" width="3365.43" height="1241.53"/></clipPath><clipPath id="clip-path-5"><rect class="cls-1" x="-1616.39" y="-150.31" width="3365.43" height="1241.53"/></clipPath><clipPath id="clip-path-6"><rect class="cls-1" x="44.66" y="36.46" width="33.83" height="3.8"/></clipPath><clipPath id="clip-path-7"><rect class="cls-1" x="8.12" y="36.46" width="33.83" height="3.8"/></clipPath></defs><title>Puera acero</title><g class="cls-2"><g class="cls-2"><g class="cls-3"><g class="cls-4"><g class="cls-5"><g class="cls-6"><line class="cls-7" x1="15.28" y1="1090.96" x2="1256.28" y2="-150.04"/><line class="cls-7" x1="46.05" y1="1090.96" x2="1287.06" y2="-150.04"/><line class="cls-7" x1="76.84" y1="1090.96" x2="1317.84" y2="-150.04"/></g></g></g></g></g></g><rect class="cls-8" width="86.61" height="72.93"/><g class="cls-9"><g class="cls-10"><rect class="cls-11" x="44.66" y="36.47" width="33.83" height="3.8"/></g></g><g class="cls-9"><g class="cls-12"><rect class="cls-11" x="8.12" y="36.47" width="33.83" height="3.8"/></g></g><rect class="cls-11" x="40.6" width="4.06" height="72.93"/><rect class="cls-11" width="4.06" height="72.93"/><rect class="cls-11" x="82.55" width="4.06" height="72.93"/><rect class="cls-11" x="2.71" width="83.9" height="2.28"/><rect class="cls-11" x="13.53" y="10.64" width="18.95" height="13.68"/><rect class="cls-11" x="54.13" y="10.64" width="18.95" height="13.68"/><rect x="34.84" y="34.95" width="3.98" height="6.84"/><rect x="46.79" y="34.95" width="3.98" height="6.84"/></svg>