<svg id="Capa_1" data-name="Capa 1" xmlns="http://www.w3.org/2000/svg" xmlns:xlink="http://www.w3.org/1999/xlink" viewBox="0 0 152.7 66.1"><defs><style>.cls-1,.cls-12,.cls-14,.cls-7{fill:none;}.cls-2{clip-path:url(#clip-path);}.cls-3{clip-path:url(#clip-path-3);}.cls-4{opacity:0.6;}.cls-5{clip-path:url(#clip-path-4);}.cls-6{clip-path:url(#clip-path-5);}.cls-7{stroke:#e5e4e4;stroke-width:0.75px;}.cls-12,.cls-14,.cls-7{stroke-miterlimit:10;}.cls-8{clip-path:url(#clip-path-6);}.cls-9{clip-path:url(#clip-path-7);}.cls-10{clip-path:url(#clip-path-8);}.cls-11{fill:#b7b7b7;}.cls-12{stroke:#666;stroke-width:0.68px;}.cls-13{fill:#666;}.cls-14{stroke:#848484;stroke-width:0.76px;}.cls-15{fill:#b3b3b3;}.cls-16{fill:#848484;}</style><clipPath id="clip-path"><rect class="cls-1" x="761.53" y="-380.09" width="1920" height="3660"/></clipPath><clipPath id="clip-path-3"><rect class="cls-1" x="-1422.02" y="289.52" width="1917.36" height="702"/></clipPath><clipPath id="clip-path-4"><rect class="cls-1" x="-2098.05" y="44.94" width="3365.43" height="1241.53"/></clipPath><clipPath id="clip-path-5"><rect class="cls-1" x="-2098.05" y="44.94" width="3365.43" height="1241.53"/></clipPath><clipPath id="clip-path-6"><rect class="cls-1" x="762.98" y="310.52" width="1917.36" height="702"/></clipPath><clipPath id="clip-path-7"><rect class="cls-1" x="86.95" y="65.94" width="3365.43" height="1241.53"/></clipPath><clipPath id="clip-path-8"><rect class="cls-1" x="86.95" y="65.94" width="3365.43" height="1241.53"/></clipPath></defs><title>Puertas de quirofano</title><g class="cls-2"><g class="cls-2"><g class="cls-3"><g class="cls-4"><g class="cls-5"><g class="cls-6"><line class="cls-7" x1="-466.39" y1="1286.21" x2="774.61" y2="45.21"/><line class="cls-7" x1="-435.61" y1="1286.21" x2="805.39" y2="45.21"/><line class="cls-7" x1="-404.83" y1="1286.21" x2="836.17" y2="45.21"/><line class="cls-7" x1="-374.05" y1="1286.21" x2="866.96" y2="45.21"/><line class="cls-7" x1="-343.27" y1="1286.21" x2="897.73" y2="45.21"/><line class="cls-7" x1="-312.49" y1="1286.21" x2="928.52" y2="45.21"/><line class="cls-7" x1="-281.71" y1="1286.21" x2="959.3" y2="45.21"/><line class="cls-7" x1="-250.93" y1="1286.21" x2="990.08" y2="45.21"/><line class="cls-7" x1="-220.14" y1="1286.21" x2="1020.86" y2="45.21"/><line class="cls-7" x1="-189.36" y1="1286.21" x2="1051.64" y2="45.21"/><line class="cls-7" x1="-158.58" y1="1286.21" x2="1082.42" y2="45.21"/><line class="cls-7" x1="-127.8" y1="1286.21" x2="1113.2" y2="45.21"/><line class="cls-7" x1="-97.02" y1="1286.21" x2="1143.99" y2="45.21"/><line class="cls-7" x1="-66.24" y1="1286.21" x2="1174.77" y2="45.21"/><line class="cls-7" x1="-35.46" y1="1286.21" x2="1205.55" y2="45.21"/><line class="cls-7" x1="-4.68" y1="1286.21" x2="1236.33" y2="45.21"/><line class="cls-7" x1="26.1" y1="1286.21" x2="1267.11" y2="45.21"/></g></g></g></g></g><g class="cls-8"><g class="cls-4"><g class="cls-9"><g class="cls-10"><line class="cls-7" x1="87.21" y1="1307.21" x2="1328.22" y2="66.21"/><line class="cls-7" x1="117.99" y1="1307.21" x2="1359" y2="66.21"/><line class="cls-7" x1="148.77" y1="1307.21" x2="1389.78" y2="66.21"/></g></g></g></g></g><rect class="cls-11" x="96.86" y="10.26" width="55.46" height="55.46"/><rect class="cls-12" x="96.86" y="10.26" width="55.46" height="55.46"/><rect class="cls-13" x="41.41" y="10.26" width="55.46" height="55.46"/><rect class="cls-14" x="41.41" y="10.26" width="55.46" height="55.46"/><rect class="cls-15" x="63.06" y="17.47" width="12.92" height="12.92"/><rect class="cls-16" width="152.7" height="10.64"/></svg>