<svg id="Capa_1" data-name="Capa 1" xmlns="http://www.w3.org/2000/svg" xmlns:xlink="http://www.w3.org/1999/xlink" viewBox="0 0 110.82 70.4"><defs><style>.cls-1,.cls-7,.cls-8{fill:none;}.cls-2{clip-path:url(#clip-path);}.cls-3{clip-path:url(#clip-path-3);}.cls-4{opacity:0.6;}.cls-5{clip-path:url(#clip-path-4);}.cls-6{fill:#9e9e9e;}.cls-7,.cls-8{stroke:gray;stroke-miterlimit:10;}.cls-7{stroke-width:0.83px;}.cls-8{stroke-width:2.35px;}</style><clipPath id="clip-path"><rect class="cls-1" x="1572.82" y="-573.98" width="1920" height="3660"/></clipPath><clipPath id="clip-path-3"><rect class="cls-1" x="-610.73" y="95.64" width="1917.36" height="702"/></clipPath><clipPath id="clip-path-4"><rect class="cls-1" x="-1286.76" y="-148.95" width="3365.43" height="1241.53"/></clipPath></defs><title>seleccional</title><polygon class="cls-6" points="109.65 69.98 63.23 69.98 63.23 11.96 109.65 18.59 109.65 69.98"/><polygon class="cls-7" points="109.65 69.98 63.23 69.98 63.23 11.96 109.65 18.59 109.65 69.98"/><path class="cls-8" d="M.24,12,51.63,1.19S62.41.36,63.23,12V70"/><path class="cls-8" d="M109.65,70.4v-58C108.82.77,98.05,1.6,98.05,1.6L46.66,12.38"/><line class="cls-7" x1="63.6" y1="18.59" x2="109.65" y2="24.6"/><line class="cls-7" x1="63.6" y1="26.47" x2="109.65" y2="32.48"/><line class="cls-7" x1="63" y1="36.23" x2="109.65" y2="40.77"/><line class="cls-7" x1="109.65" y1="63.07" x2="63.23" y2="61.9"/><line class="cls-7" x1="109.65" y1="55.06" x2="63.23" y2="53.61"/><line class="cls-7" x1="109.65" y1="47.6" x2="63.23" y2="44.29"/></svg>