<svg id="Capa_1" data-name="Capa 1" xmlns="http://www.w3.org/2000/svg" xmlns:xlink="http://www.w3.org/1999/xlink" viewBox="0 0 69.9 64.58"><defs><style>.cls-1,.cls-7,.cls-9{fill:none;}.cls-2{clip-path:url(#clip-path);}.cls-3{clip-path:url(#clip-path-3);}.cls-4{opacity:0.6;}.cls-5{clip-path:url(#clip-path-4);}.cls-6{clip-path:url(#clip-path-5);}.cls-7{stroke:#e5e4e4;stroke-width:0.75px;}.cls-7,.cls-9{stroke-miterlimit:10;}.cls-8{fill:#666;}.cls-9{stroke:#666;stroke-width:0.76px;}.cls-10{fill:#b7b7b7;}</style><clipPath id="clip-path"><rect class="cls-1" x="1234.84" y="-383.89" width="1920" height="3660"/></clipPath><clipPath id="clip-path-3"><rect class="cls-1" x="-948.72" y="285.72" width="1917.36" height="702"/></clipPath><clipPath id="clip-path-4"><rect class="cls-1" x="-1624.74" y="41.14" width="3365.43" height="1241.53"/></clipPath><clipPath id="clip-path-5"><rect class="cls-1" x="-1624.75" y="41.14" width="3365.43" height="1241.53"/></clipPath></defs><title>sellos</title><g class="cls-2"><g class="cls-2"><g class="cls-3"><g class="cls-4"><g class="cls-5"><g class="cls-6"><line class="cls-7" x1="6.92" y1="1282.41" x2="1247.92" y2="41.41"/><line class="cls-7" x1="37.7" y1="1282.41" x2="1278.7" y2="41.41"/><line class="cls-7" x1="68.48" y1="1282.41" x2="1309.48" y2="41.41"/></g></g></g></g></g></g><rect class="cls-8" width="69.9" height="12.16"/><rect class="cls-8" y="8.36" width="14.43" height="56.22"/><rect class="cls-8" x="55.46" y="8.36" width="14.43" height="56.22"/><line class="cls-9" x1="17.47" y1="27.35" x2="52.42" y2="27.35"/><line class="cls-9" x1="17.47" y1="20.13" x2="52.42" y2="20.13"/><line class="cls-9" x1="17.47" y1="35.33" x2="52.42" y2="35.33"/><line class="cls-9" x1="17.47" y1="43.3" x2="52.42" y2="43.3"/><line class="cls-9" x1="17.47" y1="51.28" x2="52.42" y2="51.28"/><line class="cls-9" x1="17.47" y1="59.64" x2="52.42" y2="59.64"/><rect class="cls-10" x="58.5" y="56.98" width="8.36" height="7.6"/><rect class="cls-10" x="3.04" y="56.98" width="8.36" height="7.6"/></svg>