<?xml version="1.0" encoding="utf-8"?>
<!-- Generator: Adobe Illustrator 22.0.0, SVG Export Plug-In . SVG Version: 6.00 Build 0)  -->
<svg version="1.1" id="Capa_1" xmlns="http://www.w3.org/2000/svg" xmlns:xlink="http://www.w3.org/1999/xlink" x="0px" y="0px"
	 viewBox="0 0 74.5 34.7" style="enable-background:new 0 0 74.5 34.7;" xml:space="preserve">
<style type="text/css">
	.st0{clip-path:url(#SVGID_2_);}
	.st1{clip-path:url(#SVGID_6_);}
	.st2{filter:url(#Adobe_OpacityMaskFilter);}
	.st3{fill:url(#SVGID_10_);}
	.st4{mask:url(#SVGID_9_);fill:url(#SVGID_11_);}
	.st5{clip-path:url(#SVGID_13_);fill:#AD272D;}
	.st6{clip-path:url(#SVGID_15_);fill:#AD272D;}
	.st7{clip-path:url(#SVGID_17_);fill:#E40E20;}
	.st8{clip-path:url(#SVGID_19_);fill:#E40E20;}
	.st9{clip-path:url(#SVGID_21_);}
	.st10{clip-path:url(#SVGID_23_);}
	.st11{clip-path:url(#SVGID_25_);}
	.st12{clip-path:url(#SVGID_21_);fill:#1D1D1B;}
	.st13{clip-path:url(#SVGID_21_);fill:#AD272D;}
	.st14{fill:#231F20;}
	.st15{fill:#BC102B;}
	.st16{fill:#FFFFFF;}
	.st17{fill:#871812;}
	.st18{fill:#67140E;}
	.st19{fill:#BF2026;}
	.st20{fill:#E12528;}
	.st21{fill:#E40E20;}
	.st22{fill:#1D1D1B;}
	.st23{fill:none;stroke:#1D1D1B;stroke-width:0.195;stroke-linecap:round;stroke-linejoin:round;stroke-miterlimit:10;}
	.st24{clip-path:url(#SVGID_29_);}
	.st25{clip-path:url(#SVGID_31_);fill:#900B14;}
	.st26{clip-path:url(#SVGID_31_);fill:#9E0410;}
	.st27{clip-path:url(#SVGID_31_);fill:#801216;}
	.st28{clip-path:url(#SVGID_31_);fill:#801815;}
	.st29{clip-path:url(#SVGID_31_);fill:#711611;}
	.st30{clip-path:url(#SVGID_31_);fill:#540700;}
	.st31{clip-path:url(#SVGID_31_);fill:#631103;}
	.st32{fill:none;stroke:#000000;stroke-width:0.224;stroke-miterlimit:10;}
</style>
<g>
	<g>
		<g>
			<defs>
				<rect id="SVGID_28_" width="26.1" height="25.9"/>
			</defs>
			<clipPath id="SVGID_2_">
				<use xlink:href="#SVGID_28_"  style="overflow:visible;"/>
			</clipPath>
			<g class="st0">
				<defs>
					<rect id="SVGID_30_" width="26.1" height="25.9"/>
				</defs>
				<clipPath id="SVGID_4_">
					<use xlink:href="#SVGID_30_"  style="overflow:visible;"/>
				</clipPath>
				<polygon style="clip-path:url(#SVGID_4_);fill:#900B14;" points="26.1,12.9 19.6,19.4 19.6,6.5 				"/>
				<polygon style="clip-path:url(#SVGID_4_);fill:#9E0410;" points="19.6,6.5 19.6,19.4 19.6,19.5 13,13 19.6,6.5 				"/>
				<polygon style="clip-path:url(#SVGID_4_);fill:#801216;" points="19.6,6.5 13,13 6.5,6.5 19.6,6.5 				"/>
				<polygon style="clip-path:url(#SVGID_4_);fill:#801815;" points="19.6,6.5 6.5,6.5 13,0 13.1,0 				"/>
				<polygon style="clip-path:url(#SVGID_4_);fill:#711611;" points="19.6,19.5 13.1,25.9 13,25.9 13,25.9 6.5,19.5 				"/>
				<polygon style="clip-path:url(#SVGID_4_);fill:#801216;" points="19.6,19.5 6.5,19.5 13,13 				"/>
				<polygon style="clip-path:url(#SVGID_4_);fill:#540700;" points="13,25.9 13,25.9 0,25.9 6.5,19.5 				"/>
				<polygon style="clip-path:url(#SVGID_4_);fill:#631103;" points="13,0 6.5,6.5 0,0 				"/>
			</g>
		</g>
		<path d="M20.2,21.4l4.5-4.4c0,0,1.9,3.4,6.8,2.8l0.7-3.3h-3.9l1.4-6.2H40l-3.6,15.7h-6C30.4,25.9,23.8,26.2,20.2,21.4"/>
		<path d="M20.9,5.2l4.4,4.4c0,0,2.8-3.8,9.6-0.7l2.4-5.7C37.3,3.2,27.8-1.9,20.9,5.2"/>
		<polygon points="44.3,2.5 50.7,2.5 48.9,10.6 54.8,10.6 56.6,2.5 62.9,2.5 57.8,26 51.4,26 53.4,16.8 47.4,16.8 45.5,26 39.1,26
					"/>
	</g>
	<g>
		<path d="M2.9,34.7c-0.3,0-0.6,0-0.9-0.1c-0.3-0.1-0.5-0.2-0.8-0.4C1,34,0.8,33.8,0.6,33.5c-0.1-0.3-0.2-0.6-0.2-1
			c0-0.4,0.1-0.8,0.2-1.1s0.4-0.7,0.7-1c0.3-0.3,0.6-0.5,1-0.7c0.4-0.2,0.8-0.2,1.3-0.2c0.2,0,0.5,0,0.7,0.1c0.2,0,0.4,0.1,0.6,0.2
			c0.2,0.1,0.3,0.2,0.5,0.3c0.1,0.1,0.2,0.2,0.3,0.3l-0.9,0.9c-0.1-0.1-0.3-0.3-0.5-0.4c-0.2-0.1-0.4-0.1-0.7-0.1
			c-0.3,0-0.5,0-0.7,0.1s-0.4,0.2-0.5,0.4S2.1,31.6,2,31.8c-0.1,0.2-0.1,0.4-0.1,0.7c0,0.2,0,0.3,0.1,0.5C2,33,2.1,33.1,2.2,33.2
			c0.1,0.1,0.2,0.2,0.4,0.2c0.1,0,0.3,0.1,0.4,0.1c0.1,0,0.3,0,0.4,0s0.2-0.1,0.3-0.1l0.2-0.7h-1l0.3-1h2.3l-0.7,2.5
			c-0.2,0.1-0.5,0.3-0.8,0.4S3.2,34.7,2.9,34.7z"/>
		<path d="M6.8,29.6h1.9c0.4,0,0.8,0,1.1,0.1s0.5,0.2,0.7,0.4c0.1,0.1,0.2,0.3,0.3,0.5c0.1,0.2,0.1,0.4,0.1,0.6
			c0,0.4-0.1,0.8-0.4,1.1s-0.6,0.5-1.1,0.7l0.8,1.7H8.5l-0.7-1.5H7.2l-0.4,1.5H5.4L6.8,29.6z M8.3,32c0.3,0,0.6-0.1,0.8-0.2
			c0.2-0.1,0.3-0.3,0.3-0.5c0-0.1,0-0.2-0.1-0.3c-0.1-0.1-0.3-0.2-0.6-0.2H7.9L7.5,32H8.3z"/>
		<path d="M13.1,34.7c-0.6,0-1.1-0.2-1.5-0.5c-0.4-0.3-0.5-0.7-0.5-1.3c0-0.1,0-0.3,0-0.4c0-0.1,0-0.3,0.1-0.4l0.7-2.5h1.4l-0.7,2.6
			c0,0.1,0,0.2-0.1,0.2c0,0.1,0,0.2,0,0.2c0,0.2,0.1,0.4,0.2,0.5c0.1,0.1,0.3,0.2,0.6,0.2c0.3,0,0.5-0.1,0.7-0.3
			c0.1-0.1,0.2-0.2,0.2-0.3c0.1-0.1,0.1-0.3,0.2-0.5l0.7-2.8h1.4l-0.8,3c-0.2,0.7-0.4,1.2-0.8,1.5c-0.2,0.2-0.5,0.4-0.8,0.5
			C13.9,34.6,13.5,34.7,13.1,34.7z"/>
		<path d="M17.4,29.6H19c0.4,0,0.8,0,1,0.1s0.5,0.2,0.7,0.4c0.3,0.3,0.4,0.6,0.4,1c0,0.3-0.1,0.6-0.2,0.8c-0.1,0.3-0.3,0.5-0.5,0.6
			c-0.2,0.2-0.5,0.3-0.8,0.4c-0.3,0.1-0.6,0.1-1,0.1h-0.8l-0.4,1.4H16L17.4,29.6z M18.6,32.1c0.3,0,0.6-0.1,0.8-0.2s0.3-0.3,0.3-0.6
			c0-0.1,0-0.3-0.1-0.4c-0.1-0.1-0.3-0.2-0.6-0.2h-0.5l-0.4,1.3H18.6z"/>
		<path d="M23.7,34.7c-0.4,0-0.7-0.1-1-0.2c-0.3-0.1-0.5-0.3-0.8-0.5c-0.2-0.2-0.4-0.4-0.5-0.7c-0.1-0.3-0.2-0.6-0.2-0.9
			c0-0.4,0.1-0.8,0.2-1.1c0.1-0.4,0.4-0.7,0.6-0.9c0.3-0.3,0.6-0.5,0.9-0.7c0.4-0.2,0.8-0.2,1.2-0.2c0.4,0,0.7,0.1,1,0.2
			c0.3,0.1,0.5,0.3,0.8,0.5c0.2,0.2,0.4,0.4,0.5,0.7s0.2,0.6,0.2,0.9c0,0.4-0.1,0.8-0.2,1.1c-0.1,0.4-0.4,0.7-0.6,0.9
			c-0.3,0.3-0.6,0.5-0.9,0.7C24.5,34.6,24.1,34.7,23.7,34.7z M23.8,33.4c0.2,0,0.4,0,0.6-0.1c0.2-0.1,0.3-0.2,0.5-0.4
			c0.1-0.2,0.2-0.3,0.3-0.5s0.1-0.4,0.1-0.6c0-0.2,0-0.3-0.1-0.4c0-0.1-0.1-0.3-0.2-0.4c-0.1-0.1-0.2-0.2-0.3-0.2
			c-0.1-0.1-0.3-0.1-0.5-0.1c-0.2,0-0.4,0-0.6,0.1c-0.2,0.1-0.3,0.2-0.5,0.4c-0.1,0.2-0.2,0.3-0.3,0.5s-0.1,0.4-0.1,0.6
			c0,0.2,0,0.3,0.1,0.4s0.1,0.3,0.2,0.4c0.1,0.1,0.2,0.2,0.3,0.2C23.5,33.4,23.7,33.4,23.8,33.4z"/>
		<path d="M30,29.6h1.4l-0.5,1.9h1.8l0.5-1.9h1.4l-1.3,5h-1.4l0.5-1.9h-1.8l-0.5,1.9h-1.4L30,29.6z"/>
		<path d="M35.5,29.6h1.4l-1.3,5h-1.4L35.5,29.6z"/>
		<path d="M37.8,29.6h1.6c0.5,0,0.9,0.1,1.2,0.2c0.3,0.1,0.6,0.3,0.8,0.5c0.4,0.4,0.5,0.9,0.5,1.5c0,0.4-0.1,0.7-0.2,1.1
			c-0.1,0.3-0.3,0.6-0.6,0.9c-0.3,0.3-0.7,0.5-1.1,0.7c-0.4,0.2-0.9,0.2-1.5,0.2h-2L37.8,29.6z M38.6,33.4c0.3,0,0.6,0,0.8-0.1
			c0.2-0.1,0.5-0.2,0.6-0.4c0.1-0.1,0.2-0.3,0.3-0.5c0.1-0.2,0.1-0.4,0.1-0.6c0-0.2,0-0.3-0.1-0.4s-0.1-0.2-0.2-0.3
			C40.1,31,40,31,39.8,30.9c-0.2-0.1-0.4-0.1-0.6-0.1h-0.4l-0.7,2.5H38.6z"/>
		<path d="M44.9,29.6h1.4l0.8,5h-1.5l-0.1-0.9h-1.9l-0.6,0.9h-1.5L44.9,29.6z M45.3,32.6l-0.2-1.4l-0.9,1.4H45.3z"/>
		<path d="M48.8,29.6h1.4l-1,3.8h2.4l-0.3,1.2h-3.8L48.8,29.6z"/>
		<path d="M54.7,34.7c-0.3,0-0.6,0-0.9-0.1c-0.3-0.1-0.5-0.2-0.8-0.4c-0.2-0.2-0.4-0.4-0.6-0.7c-0.1-0.3-0.2-0.6-0.2-1
			c0-0.4,0.1-0.8,0.2-1.1s0.4-0.7,0.7-1c0.3-0.3,0.6-0.5,1-0.7c0.4-0.2,0.8-0.2,1.3-0.2c0.2,0,0.5,0,0.7,0.1c0.2,0,0.4,0.1,0.6,0.2
			c0.2,0.1,0.3,0.2,0.5,0.3c0.1,0.1,0.2,0.2,0.3,0.3l-0.9,0.9c-0.1-0.1-0.3-0.3-0.5-0.4c-0.2-0.1-0.4-0.1-0.7-0.1
			c-0.3,0-0.5,0-0.7,0.1s-0.4,0.2-0.5,0.4s-0.3,0.3-0.4,0.5c-0.1,0.2-0.1,0.4-0.1,0.7c0,0.2,0,0.3,0.1,0.5c0.1,0.1,0.1,0.2,0.2,0.3
			c0.1,0.1,0.2,0.2,0.4,0.2c0.1,0,0.3,0.1,0.4,0.1c0.1,0,0.3,0,0.4,0s0.2-0.1,0.3-0.1l0.2-0.7h-1l0.3-1h2.3l-0.7,2.5
			c-0.2,0.1-0.5,0.3-0.8,0.4S55.1,34.7,54.7,34.7z"/>
		<path d="M60.1,34.7c-0.4,0-0.7-0.1-1-0.2c-0.3-0.1-0.5-0.3-0.8-0.5c-0.2-0.2-0.4-0.4-0.5-0.7c-0.1-0.3-0.2-0.6-0.2-0.9
			c0-0.4,0.1-0.8,0.2-1.1c0.1-0.4,0.4-0.7,0.6-0.9c0.3-0.3,0.6-0.5,0.9-0.7c0.4-0.2,0.8-0.2,1.2-0.2c0.4,0,0.7,0.1,1,0.2
			c0.3,0.1,0.5,0.3,0.8,0.5c0.2,0.2,0.4,0.4,0.5,0.7s0.2,0.6,0.2,0.9c0,0.4-0.1,0.8-0.2,1.1c-0.1,0.4-0.4,0.7-0.6,0.9
			c-0.3,0.3-0.6,0.5-0.9,0.7C61,34.6,60.6,34.7,60.1,34.7z M60.3,33.4c0.2,0,0.4,0,0.6-0.1c0.2-0.1,0.3-0.2,0.5-0.4
			c0.1-0.2,0.2-0.3,0.3-0.5s0.1-0.4,0.1-0.6c0-0.2,0-0.3-0.1-0.4c0-0.1-0.1-0.3-0.2-0.4c-0.1-0.1-0.2-0.2-0.3-0.2
			c-0.1-0.1-0.3-0.1-0.5-0.1c-0.2,0-0.4,0-0.6,0.1c-0.2,0.1-0.3,0.2-0.5,0.4c-0.1,0.2-0.2,0.3-0.3,0.5s-0.1,0.4-0.1,0.6
			c0,0.2,0,0.3,0.1,0.4s0.1,0.3,0.2,0.4c0.1,0.1,0.2,0.2,0.3,0.2C59.9,33.4,60.1,33.4,60.3,33.4z"/>
	</g>
	<g>
		<path class="st32" d="M74.4,5.4c0,2-1.6,3.6-3.6,3.6s-3.6-1.6-3.6-3.6c0-2,1.6-3.6,3.6-3.6S74.4,3.4,74.4,5.4z"/>
	</g>
	<g>
		<path d="M68,6.8V4.1h0.5L69.2,6c0.1,0.2,0.1,0.3,0.1,0.4c0-0.1,0.1-0.2,0.1-0.4l0.6-1.8h0.5v2.6h-0.3V4.6l-0.8,2.2h-0.3l-0.8-2.3
			v2.3H68z"/>
		<path d="M71.1,6.8V4.1h1.2c0.2,0,0.4,0,0.5,0.1c0.1,0,0.2,0.1,0.3,0.3c0.1,0.1,0.1,0.3,0.1,0.4c0,0.2-0.1,0.3-0.2,0.5
			c-0.1,0.1-0.3,0.2-0.6,0.2c0.1,0,0.2,0.1,0.2,0.1c0.1,0.1,0.2,0.2,0.3,0.4l0.5,0.7H73l-0.4-0.5c-0.1-0.2-0.2-0.3-0.3-0.4
			c-0.1-0.1-0.1-0.1-0.2-0.2c-0.1,0-0.1-0.1-0.2-0.1c0,0-0.1,0-0.2,0h-0.4v1.2H71.1z M71.5,5.3h0.8c0.2,0,0.3,0,0.4,0
			s0.2-0.1,0.2-0.2c0-0.1,0.1-0.2,0.1-0.2c0-0.1,0-0.2-0.1-0.3c-0.1-0.1-0.2-0.1-0.4-0.1h-0.8V5.3z"/>
	</g>
</g>
</svg>
