<?xml version="1.0" encoding="utf-8"?>
<!-- Generator: Adobe Illustrator 22.0.0, SVG Export Plug-In . SVG Version: 6.00 Build 0)  -->
<svg version="1.1" id="Capa_1" xmlns="http://www.w3.org/2000/svg" xmlns:xlink="http://www.w3.org/1999/xlink" x="0px" y="0px"
	 viewBox="0 0 125.2 31.5" style="enable-background:new 0 0 125.2 31.5;" xml:space="preserve">
<style type="text/css">
	.st0{clip-path:url(#SVGID_2_);}
	.st1{clip-path:url(#SVGID_6_);}
	.st2{filter:url(#Adobe_OpacityMaskFilter);}
	.st3{fill:url(#SVGID_10_);}
	.st4{mask:url(#SVGID_9_);fill:url(#SVGID_11_);}
	.st5{clip-path:url(#SVGID_13_);fill:#AD272D;}
	.st6{clip-path:url(#SVGID_15_);fill:#AD272D;}
	.st7{clip-path:url(#SVGID_17_);fill:#E40E20;}
	.st8{clip-path:url(#SVGID_19_);fill:#E40E20;}
	.st9{clip-path:url(#SVGID_21_);}
	.st10{clip-path:url(#SVGID_23_);}
	.st11{clip-path:url(#SVGID_25_);}
	.st12{clip-path:url(#SVGID_21_);fill:#1D1D1B;}
	.st13{clip-path:url(#SVGID_21_);fill:#AD272D;}
	.st14{fill:#231F20;}
	.st15{fill:#BC102B;}
	.st16{fill:#FFFFFF;}
	.st17{fill:#871812;}
	.st18{fill:#67140E;}
	.st19{fill:#BF2026;}
	.st20{fill:#E12528;}
	.st21{fill:#E40E20;}
	.st22{fill:#1D1D1B;}
	.st23{fill:none;stroke:#1D1D1B;stroke-width:0.195;stroke-linecap:round;stroke-linejoin:round;stroke-miterlimit:10;}
	.st24{clip-path:url(#SVGID_29_);}
	.st25{clip-path:url(#SVGID_31_);fill:#900B14;}
	.st26{clip-path:url(#SVGID_31_);fill:#9E0410;}
	.st27{clip-path:url(#SVGID_31_);fill:#801216;}
	.st28{clip-path:url(#SVGID_31_);fill:#801815;}
	.st29{clip-path:url(#SVGID_31_);fill:#711611;}
	.st30{clip-path:url(#SVGID_31_);fill:#540700;}
	.st31{clip-path:url(#SVGID_31_);fill:#631103;}
	.st32{fill:none;stroke:#000000;stroke-width:0.224;stroke-miterlimit:10;}
</style>
<g>
	<g>
		<defs>
			<rect id="SVGID_5_" x="418.4" y="-752.3" width="959.5" height="923"/>
		</defs>
		<clipPath id="SVGID_2_">
			<use xlink:href="#SVGID_5_"  style="overflow:visible;"/>
		</clipPath>
		<g class="st0">
			<defs>
				<rect id="SVGID_7_" x="-6.6" y="-752.3" width="1384.5" height="923"/>
			</defs>
			<clipPath id="SVGID_4_">
				<use xlink:href="#SVGID_7_"  style="overflow:visible;"/>
			</clipPath>
			<g style="clip-path:url(#SVGID_4_);">
				
					<image style="overflow:visible;" width="6000" height="4000" xlink:href="AAF99F417C0F3EF6.jpg"  transform="matrix(0.2307 0 0 0.2308 -6.6223 -752.2985)">
				</image>
			</g>
		</g>
	</g>
</g>
<g>
	<g>
		<polygon class="st21" points="25.2,13.4 18.9,7.1 12.6,0.8 0,0.8 6.3,7.1 12.6,13.4 6.3,19.7 0,26 12.6,26 18.9,19.7 		"/>
		<polygon class="st22" points="54.5,3.2 52.7,11.1 47.1,11.1 48.8,3.2 42.7,3.2 37.7,26 43.8,26 45.8,17.1 51.4,17.1 49.5,26 
			55.6,26 60.6,3.2 		"/>
		<path class="st22" d="M28.7,8.2c0.6,0,2.1,0.2,4.9,1.3L35.9,4c-2.9-1.2-5.3-1.7-7.2-1.7c-3.4,0-6.4,1.4-8.6,3.7l4.2,4.2
			C25.4,9,27,8.2,28.7,8.2"/>
		<path class="st22" d="M28.6,10.8l-1.3,6H31L30.3,20h-1.6c-2.1,0-3.9-1.1-4.9-2.7l-4.3,4.3c2.2,2.7,5.5,4.4,9.2,4.4h6.4l3.4-15.2
			H28.6z"/>
		<polygon class="st22" points="76.4,7.4 75.5,3.5 74.9,3.5 76.1,8.7 76.3,8.7 76.4,8.9 76.4,8.7 76.6,8.7 77.8,3.5 77.2,3.5 		"/>
		<polygon class="st22" points="83,8.1 81.3,8.1 81.3,6.1 82.7,6.1 82.7,5.6 81.3,5.6 81.3,4 83,4 83,3.5 80.7,3.5 80.7,8.7 83,8.7 
					"/>
		<polygon class="st22" points="86.5,5.2 87.8,8.7 88,8.7 88,8.8 88,8.7 88.3,8.7 88.3,3.5 87.7,3.5 87.7,7 86.4,3.5 86.2,3.5 
			86.2,3.4 86.2,3.5 85.9,3.5 85.9,8.7 86.5,8.7 		"/>
		<polygon class="st22" points="92.1,8.7 92.6,8.7 92.6,4 93.6,4 93.6,3.5 91.1,3.5 91.1,4 92.1,4 		"/>
		<path class="st22" d="M97.2,7.1h1.2l0.3,1.5h0.6l-1.2-5.2h-0.2l-0.1-0.4l-0.1,0.4h-0.2l-1.2,5.2h0.6L97.2,7.1z M97.3,6.6l0.5-2.1
			l0.5,2.1H97.3z"/>
		<polygon class="st22" points="102.6,5.2 103.9,8.7 104.2,8.7 104.2,8.8 104.2,8.7 104.4,8.7 104.4,3.5 103.9,3.5 103.9,7 
			102.6,3.5 102.4,3.5 102.3,3.4 102.3,3.5 102.1,3.5 102.1,8.7 102.6,8.7 		"/>
		<path class="st22" d="M108.9,3.5l-0.1-0.4l-0.1,0.4h-0.2l-1.2,5.2h0.6l0.3-1.5h1.2l0.3,1.5h0.6l-1.2-5.2H108.9z M108.4,6.6
			l0.5-2.1l0.5,2.1H108.4z"/>
		<path class="st22" d="M115.3,3.8c-0.1-0.1-0.2-0.2-0.4-0.3c-0.3-0.1-0.6-0.1-0.9,0c-0.1,0.1-0.3,0.2-0.4,0.3
			c-0.1,0.1-0.2,0.2-0.3,0.4c-0.1,0.1-0.1,0.3-0.1,0.5c0,0.2,0,0.4,0.1,0.5c0.1,0.2,0.1,0.3,0.2,0.4c0.1,0.1,0.2,0.2,0.3,0.3
			c0.1,0.1,0.2,0.2,0.4,0.3c0.1,0.1,0.2,0.2,0.3,0.3c0.1,0.1,0.2,0.2,0.3,0.3c0.1,0.1,0.1,0.2,0.2,0.3c0,0.1,0.1,0.2,0.1,0.4
			c0,0.1,0,0.2-0.1,0.3c0,0.1-0.1,0.2-0.1,0.2c-0.1,0.1-0.1,0.1-0.2,0.1c-0.2,0.1-0.3,0.1-0.5,0C114.1,8.1,114,8,114,8
			c-0.1-0.1-0.1-0.1-0.1-0.2c0-0.1-0.1-0.2-0.1-0.3V7.4h-0.6v0.2c0,0.2,0,0.3,0.1,0.5c0.1,0.1,0.2,0.3,0.3,0.4
			c0.1,0.1,0.2,0.2,0.4,0.3c0.1,0.1,0.3,0.1,0.5,0.1c0.2,0,0.3,0,0.5-0.1c0.1-0.1,0.3-0.2,0.4-0.3c0.1-0.1,0.2-0.2,0.3-0.4
			c0.1-0.1,0.1-0.3,0.1-0.5c0-0.2,0-0.4-0.1-0.6c-0.1-0.2-0.1-0.3-0.3-0.5c-0.1-0.1-0.2-0.3-0.3-0.4c-0.1-0.1-0.2-0.2-0.4-0.3l0,0
			c-0.1-0.1-0.2-0.2-0.3-0.3c-0.1-0.1-0.2-0.2-0.3-0.3c-0.1-0.1-0.1-0.2-0.2-0.3c0-0.1-0.1-0.2-0.1-0.4c0-0.1,0-0.2,0.1-0.3
			c0-0.1,0.1-0.1,0.1-0.2c0.1-0.1,0.1-0.1,0.2-0.1c0.2-0.1,0.3-0.1,0.5,0c0.1,0,0.2,0.1,0.2,0.1c0.1,0.1,0.1,0.1,0.1,0.2
			c0,0.1,0.1,0.2,0.1,0.2v0.2h0.6V4.6c0-0.2,0-0.3-0.1-0.5C115.5,4,115.4,3.9,115.3,3.8"/>
		<polygon class="st22" points="123.6,8.7 124.2,8.7 124.2,6.1 125.2,3.5 124.6,3.5 123.9,5.3 123.2,3.5 122.6,3.5 123.6,6.1 		"/>
		<path class="st22" d="M77,12.5c-0.1-0.1-0.2-0.2-0.4-0.3c-0.3-0.1-0.6-0.1-0.9,0c-0.1,0.1-0.3,0.2-0.4,0.3
			c-0.1,0.1-0.2,0.2-0.3,0.4C75,13.1,75,13.2,75,13.4v2.9c0,0.2,0,0.3,0.1,0.5c0.1,0.1,0.2,0.3,0.3,0.4c0.1,0.1,0.2,0.2,0.4,0.3
			c0.1,0.1,0.3,0.1,0.5,0.1c0.2,0,0.3,0,0.5-0.1c0.1-0.1,0.3-0.2,0.4-0.3c0.1-0.1,0.2-0.2,0.3-0.4c0.1-0.1,0.1-0.3,0.1-0.5v-0.2
			h-0.6v0.2c0,0.1,0,0.2-0.1,0.3c0,0.1-0.1,0.2-0.1,0.2c-0.1,0.1-0.1,0.1-0.2,0.1c-0.2,0.1-0.3,0.1-0.5,0c-0.1,0-0.2-0.1-0.2-0.1
			c-0.1-0.1-0.1-0.1-0.1-0.2c0-0.1-0.1-0.2-0.1-0.3v-2.9c0-0.1,0-0.2,0.1-0.3c0-0.1,0.1-0.1,0.1-0.2c0.1-0.1,0.1-0.1,0.2-0.1
			c0.2-0.1,0.3-0.1,0.5,0c0.1,0,0.2,0.1,0.2,0.1c0.1,0.1,0.1,0.1,0.1,0.2c0,0.1,0.1,0.2,0.1,0.2v0.2h0.6v-0.2c0-0.2,0-0.3-0.1-0.5
			C77.2,12.8,77.2,12.6,77,12.5"/>
		<path class="st22" d="M81.9,12.2l-0.1-0.4l-0.1,0.4h-0.2l-1.2,5.2h0.6l0.3-1.5h1.2l0.3,1.5h0.6l-1.2-5.2H81.9z M81.4,15.4l0.5-2.1
			l0.5,2.1H81.4z"/>
		<polygon class="st22" points="88,15.7 86.7,12.2 86.4,12.2 86.4,12.1 86.4,12.2 86.2,12.2 86.2,17.5 86.7,17.5 86.7,13.9 88,17.5 
			88.3,17.5 88.3,17.5 88.3,17.5 88.5,17.5 88.5,12.2 88,12.2 		"/>
		<path class="st22" d="M93.7,12.5c-0.1-0.1-0.2-0.2-0.4-0.3c-0.3-0.1-0.6-0.1-0.9,0c-0.1,0.1-0.3,0.2-0.4,0.3
			c-0.1,0.1-0.2,0.2-0.3,0.4c-0.1,0.1-0.1,0.3-0.1,0.5v2.9c0,0.2,0,0.3,0.1,0.5c0.1,0.1,0.2,0.3,0.3,0.4c0.1,0.1,0.2,0.2,0.4,0.3
			c0.1,0.1,0.3,0.1,0.5,0.1c0.2,0,0.3,0,0.5-0.1c0.1-0.1,0.3-0.2,0.4-0.3c0.1-0.1,0.2-0.2,0.3-0.4c0.1-0.1,0.1-0.3,0.1-0.5v-0.2
			h-0.6v0.2c0,0.1,0,0.2-0.1,0.3c0,0.1-0.1,0.2-0.1,0.2c-0.1,0.1-0.1,0.1-0.2,0.1c-0.2,0.1-0.3,0.1-0.5,0c-0.1,0-0.2-0.1-0.2-0.1
			c-0.1-0.1-0.1-0.1-0.1-0.2c0-0.1-0.1-0.2-0.1-0.3v-2.9c0-0.1,0-0.2,0.1-0.3c0-0.1,0.1-0.1,0.1-0.2c0.1-0.1,0.1-0.1,0.2-0.1
			c0.2-0.1,0.3-0.1,0.5,0c0.1,0,0.2,0.1,0.2,0.1c0.1,0.1,0.1,0.1,0.1,0.2c0,0.1,0.1,0.2,0.1,0.2v0.2h0.6v-0.2c0-0.2,0-0.3-0.1-0.5
			C93.9,12.8,93.8,12.6,93.7,12.5"/>
		<polygon class="st22" points="97.2,17.5 99.4,17.5 99.4,16.9 97.7,16.9 97.7,14.9 99.1,14.9 99.1,14.3 97.7,14.3 97.7,12.8 
			99.4,12.8 99.4,12.2 97.2,12.2 		"/>
		<polygon class="st22" points="102.9,12.2 102.4,12.2 102.4,17.4 104.5,17.4 104.5,16.9 102.9,16.9 		"/>
		<polygon class="st22" points="109.5,16.9 107.9,16.9 107.9,14.9 109.2,14.9 109.2,14.3 107.9,14.3 107.9,12.8 109.5,12.8 
			109.5,12.2 107.3,12.2 107.3,17.5 109.5,17.5 		"/>
		<path class="st22" d="M114.2,15.2c0.1-0.1,0.2-0.2,0.3-0.3c0.1-0.1,0.2-0.2,0.2-0.4c0.1-0.1,0.1-0.3,0.1-0.4v-0.8
			c0-0.2,0-0.3-0.1-0.5c-0.1-0.1-0.1-0.3-0.3-0.4c-0.1-0.1-0.2-0.2-0.4-0.3c-0.1-0.1-0.3-0.1-0.5-0.1h-1v5.2h0.6v-2.1h0.3l0.9,2.1
			h0.6l-0.9-2.2C114,15.3,114.1,15.2,114.2,15.2 M114.2,14.2c0,0.1,0,0.2-0.1,0.2c0,0.1-0.1,0.2-0.1,0.2c-0.1,0.1-0.1,0.1-0.2,0.1
			c-0.1,0-0.2,0-0.3,0h-0.5v-2.1h0.5c0.1,0,0.2,0,0.2,0.1c0.1,0,0.1,0.1,0.2,0.1c0.1,0.1,0.1,0.1,0.1,0.2c0,0.1,0.1,0.2,0.1,0.2
			V14.2z"/>
		
			<rect x="117.3" y="11.2" transform="matrix(0.9543 -0.2987 0.2987 0.9543 1.9798 35.8397)" class="st22" width="1.8" height="0.6"/>
		<rect x="117.9" y="12.2" class="st22" width="0.6" height="5.2"/>
		<path class="st22" d="M123,12.2l-0.1-0.4l-0.1,0.4h-0.2l-1.2,5.2h0.6l0.3-1.5h1.2l0.3,1.5h0.6l-1.2-5.2H123z M122.4,15.4l0.5-2.1
			l0.5,2.1H122.4z"/>
		<polygon class="st22" points="75,26.2 77.2,26.2 77.2,25.7 75.5,25.7 75.5,23.6 76.9,23.6 76.9,23.1 75.5,23.1 75.5,21.5 
			77.2,21.5 77.2,21 75,21 		"/>
		<path class="st22" d="M82,25c0,0.1,0,0.2-0.1,0.3c0,0.1-0.1,0.2-0.1,0.2s-0.1,0.1-0.2,0.1c-0.2,0.1-0.3,0.1-0.5,0
			c-0.1,0-0.2-0.1-0.2-0.1c-0.1-0.1-0.1-0.1-0.1-0.2c0-0.1-0.1-0.2-0.1-0.3V21h-0.6V25c0,0.2,0,0.3,0.1,0.5c0.1,0.1,0.2,0.3,0.3,0.4
			c0.1,0.1,0.2,0.2,0.4,0.3c0.1,0.1,0.3,0.1,0.5,0.1c0.2,0,0.3,0,0.5-0.1c0.1-0.1,0.3-0.2,0.4-0.3c0.1-0.1,0.2-0.2,0.3-0.4
			c0.1-0.1,0.1-0.3,0.1-0.5V21H82V25z"/>
		<path class="st22" d="M87.4,24c0.1-0.1,0.2-0.2,0.3-0.3c0.1-0.1,0.2-0.2,0.2-0.4c0.1-0.1,0.1-0.3,0.1-0.4v-0.8
			c0-0.2,0-0.3-0.1-0.5c-0.1-0.1-0.1-0.3-0.3-0.4c-0.1-0.1-0.2-0.2-0.4-0.3C87.1,21,86.9,21,86.8,21h-1v5.2h0.6v-2.1h0.3l0.9,2.1
			h0.6l-0.9-2.2C87.2,24,87.3,24,87.4,24 M87.4,22.9c0,0.1,0,0.2-0.1,0.2c0,0.1-0.1,0.1-0.1,0.2c-0.1,0.1-0.1,0.1-0.2,0.1
			c-0.1,0-0.2,0-0.3,0h-0.5v-2.1h0.5c0.1,0,0.2,0,0.2,0.1c0.1,0,0.1,0.1,0.2,0.1c0.1,0.1,0.1,0.1,0.1,0.2c0,0.1,0.1,0.2,0.1,0.2
			V22.9z"/>
		<path class="st22" d="M93.2,21.3c-0.1-0.1-0.2-0.2-0.4-0.3c-0.3-0.1-0.6-0.1-0.9,0c-0.1,0.1-0.3,0.2-0.4,0.3
			c-0.1,0.1-0.2,0.2-0.3,0.4c-0.1,0.1-0.1,0.3-0.1,0.5V25c0,0.2,0,0.3,0.1,0.5c0.1,0.1,0.2,0.3,0.3,0.4c0.1,0.1,0.2,0.2,0.4,0.3
			c0.1,0.1,0.3,0.1,0.5,0.1c0.2,0,0.3,0,0.5-0.1c0.1-0.1,0.3-0.2,0.4-0.3c0.1-0.1,0.2-0.2,0.3-0.4c0.1-0.1,0.1-0.3,0.1-0.5v-2.9
			c0-0.2,0-0.3-0.1-0.5C93.4,21.5,93.3,21.4,93.2,21.3 M92.3,21.5c0.1,0,0.2,0,0.2,0.1c0.1,0,0.1,0.1,0.2,0.1
			c0.1,0.1,0.1,0.1,0.1,0.2c0,0.1,0.1,0.2,0.1,0.2V25c0,0.1,0,0.2-0.1,0.3c0,0.1-0.1,0.2-0.1,0.2c-0.1,0.1-0.1,0.1-0.2,0.1
			c-0.2,0.1-0.3,0.1-0.5,0c-0.1,0-0.2-0.1-0.2-0.1c-0.1-0.1-0.1-0.1-0.1-0.2c0-0.1-0.1-0.2-0.1-0.3v-2.9c0-0.1,0-0.2,0.1-0.2
			c0-0.1,0.1-0.1,0.1-0.2c0.1-0.1,0.1-0.1,0.2-0.1C92.2,21.5,92.3,21.5,92.3,21.5"/>
		<path class="st22" d="M98.6,21.3c-0.1-0.1-0.2-0.2-0.4-0.3C98.1,21,98,21,97.8,21h-1.1v5.2h0.6v-1.8h0.6h0c0.2,0,0.3-0.1,0.4-0.1
			c0.1-0.1,0.3-0.2,0.4-0.3c0.1-0.1,0.2-0.2,0.2-0.4c0.1-0.1,0.1-0.3,0.1-0.5v-1c0-0.2,0-0.3-0.1-0.5C98.8,21.6,98.7,21.4,98.6,21.3
			 M98.4,22.2v1c0,0.1,0,0.2,0,0.2c0,0.1-0.1,0.1-0.1,0.2c-0.1,0.1-0.1,0.1-0.2,0.1c-0.1,0-0.2,0.1-0.2,0.1h-0.6v-2.3h0.6
			c0.1,0,0.2,0,0.2,0.1c0.1,0,0.2,0.1,0.2,0.1c0.1,0.1,0.1,0.1,0.1,0.2C98.4,22,98.4,22.1,98.4,22.2"/>
		<polygon class="st22" points="102.1,26.2 104.3,26.2 104.3,25.7 102.6,25.7 102.6,23.6 104,23.6 104,23.1 102.6,23.1 102.6,21.5 
			104.3,21.5 104.3,21 102.1,21 		"/>
		<path class="st22" d="M108.7,21l-0.1-0.4l-0.1,0.4h-0.2l-1.2,5.2h0.6l0.3-1.5h1.2l0.3,1.5h0.6l-1.2-5.2H108.7z M108.1,24.1
			l0.5-2.1l0.5,2.1H108.1z"/>
		<line class="st23" x1="69.7" y1="0.1" x2="63.2" y2="31.4"/>
	</g>
</g>
</svg>
