<?xml version="1.0" encoding="utf-8"?>
<!-- Generator: Adobe Illustrator 22.0.0, SVG Export Plug-In . SVG Version: 6.00 Build 0)  -->
<svg version="1.1" id="Capa_1" xmlns="http://www.w3.org/2000/svg" xmlns:xlink="http://www.w3.org/1999/xlink" x="0px" y="0px"
	 viewBox="0 0 221.8 74.8" style="enable-background:new 0 0 221.8 74.8;" xml:space="preserve">
<style type="text/css">
	.st0{clip-path:url(#SVGID_2_);}
	.st1{clip-path:url(#SVGID_6_);}
	.st2{filter:url(#Adobe_OpacityMaskFilter);}
	.st3{fill:url(#SVGID_10_);}
	.st4{mask:url(#SVGID_9_);fill:url(#SVGID_11_);}
	.st5{clip-path:url(#SVGID_13_);fill:#AD272D;}
	.st6{clip-path:url(#SVGID_15_);fill:#AD272D;}
	.st7{clip-path:url(#SVGID_17_);fill:#E40E20;}
	.st8{clip-path:url(#SVGID_19_);fill:#E40E20;}
	.st9{clip-path:url(#SVGID_21_);}
	.st10{clip-path:url(#SVGID_23_);}
	.st11{clip-path:url(#SVGID_25_);}
	.st12{clip-path:url(#SVGID_21_);fill:#1D1D1B;}
	.st13{clip-path:url(#SVGID_21_);fill:#AD272D;}
	.st14{fill:#231F20;}
	.st15{fill:#BC102B;}
	.st16{fill:#FFFFFF;}
	.st17{fill:#871812;}
	.st18{fill:#67140E;}
	.st19{fill:#BF2026;}
	.st20{fill:#E12528;}
	.st21{fill:#E40E20;}
	.st22{fill:#1D1D1B;}
	.st23{fill:none;stroke:#1D1D1B;stroke-width:0.195;stroke-linecap:round;stroke-linejoin:round;stroke-miterlimit:10;}
	.st24{clip-path:url(#SVGID_29_);}
	.st25{clip-path:url(#SVGID_31_);fill:#900B14;}
	.st26{clip-path:url(#SVGID_31_);fill:#9E0410;}
	.st27{clip-path:url(#SVGID_31_);fill:#801216;}
	.st28{clip-path:url(#SVGID_31_);fill:#801815;}
	.st29{clip-path:url(#SVGID_31_);fill:#711611;}
	.st30{clip-path:url(#SVGID_31_);fill:#540700;}
	.st31{clip-path:url(#SVGID_31_);fill:#631103;}
	.st32{fill:none;stroke:#000000;stroke-width:0.224;stroke-miterlimit:10;}
</style>
<g>
	<g>
		<defs>
			<rect id="SVGID_5_" x="573.3" y="-423.7" width="959.5" height="923"/>
		</defs>
		<clipPath id="SVGID_2_">
			<use xlink:href="#SVGID_5_"  style="overflow:visible;"/>
		</clipPath>
		<g class="st0">
			<defs>
				<rect id="SVGID_7_" x="148.3" y="-423.7" width="1384.5" height="923"/>
			</defs>
			<clipPath id="SVGID_4_">
				<use xlink:href="#SVGID_7_"  style="overflow:visible;"/>
			</clipPath>
			<g style="clip-path:url(#SVGID_4_);">
				
					<image style="overflow:visible;" width="6000" height="4000" xlink:href="D4659CC0A225E717.jpg"  transform="matrix(0.2307 0 0 0.2308 148.3354 -423.7405)">
				</image>
			</g>
		</g>
	</g>
</g>
<g>
	<g>
		<polygon class="st16" points="0,74.8 157.5,74.8 200.1,37.4 157.5,0 0,0 		"/>
		<polygon class="st17" points="157.3,18.8 178.8,0.1 200.3,18.8 		"/>
		<polygon class="st18" points="135.8,0.1 178.8,0.1 157.3,18.8 		"/>
		<polygon class="st19" points="200.3,18.8 157.3,18.8 178.8,37.4 		"/>
		<polygon class="st17" points="157.3,56.1 178.8,74.7 200.3,56.1 		"/>
		<polygon class="st18" points="135.8,74.7 178.8,74.7 157.3,56.1 		"/>
		<polygon class="st19" points="200.3,56.1 157.3,56.1 178.8,37.4 		"/>
		<polygon class="st20" points="178.8,37.4 200.3,18.8 200.3,56.1 		"/>
		<polygon class="st19" points="221.8,37.4 200.3,56.1 200.3,18.8 		"/>
	</g>
	<g>
		<polygon class="st14" points="43.2,13.5 43.2,60.2 39.2,60.2 39.2,14.8 		"/>
		<polygon class="st14" points="48.2,15.8 48.2,17.5 63.2,21.5 63.2,52.9 67.5,54.5 67.5,21.2 		"/>
		<polyline class="st14" points="63.9,27.5 52.5,24.8 64.2,28.5 		"/>
		<polyline class="st14" points="63.9,35.2 52.5,32.5 64.2,36.2 		"/>
		<polyline class="st14" points="63.9,42.9 52.5,40.2 64.2,43.9 		"/>
		<polygon class="st14" points="58.2,22.8 58.9,22.8 58.9,22.2 54.9,21.2 58.2,22.2 		"/>
		<polygon class="st14" points="44.2,49.5 44.2,60.2 45.8,60.2 45.8,52.9 		"/>
		<path class="st14" d="M48.5,50.2l-3.7-1l1.7,3.7v7.3h3.3v-7L48.5,50.2z M48.3,59.7c0,0,1.2-0.9-0.2-1.6c0,0,0.9-0.1,0.9,0.8
			C49.2,59.7,48.3,59.7,48.3,59.7 M48.5,56.8c0,0,1.1-1.1-0.5-1.5c0,0,0.8-0.2,1.1,0.6C49.3,56.7,48.5,56.8,48.5,56.8"/>
		<polygon class="st14" points="49.5,50.2 50.5,53.2 50.5,60.2 68.5,60.2 68.5,57.6 67.5,55.5 		"/>
		<path class="st14" d="M70.9,56.9l-2.7-1l0.7,1.7v2.7h2.7v-2L70.9,56.9z M70.5,59.7c0,0,0.5-0.4-0.1-0.7c0,0,0.4,0,0.4,0.3
			C70.9,59.7,70.6,59.7,70.5,59.7"/>
		<path class="st15" d="M54.5,11.5l-0.3-1.3l3.7,1l-2.9,2.3l-0.2-1.2c0,0-11.8,1.4-17.6,12c0,0-4.6,8.6,2,16.7v1.2
			c0,0-7.8-7.2-2.7-18.6C36.4,23.7,40.6,14.1,54.5,11.5"/>
		<path class="st15" d="M67.5,47.8v0.9c0,0,19.9,5,66.8,3.5v-0.8C134.3,51.5,91.7,53,67.5,47.8"/>
		<path class="st14" d="M70.4,57.8c0,0,0.4-0.1,0.5,0.3c0.1,0.4-0.3,0.4-0.3,0.4S71.1,58,70.4,57.8"/>
		<g>
			<path class="st14" d="M72.3,28.3v-7.1H74c0.5,0,0.9,0,1.1,0.1c0.3,0.1,0.5,0.1,0.7,0.3c0.3,0.2,0.5,0.4,0.7,0.8
				c0.2,0.3,0.2,0.7,0.2,1.1c0,0.4-0.1,0.8-0.3,1.2c-0.2,0.3-0.4,0.6-0.7,0.8c-0.2,0.1-0.4,0.2-0.7,0.2c-0.3,0-0.6,0.1-1.1,0.1h-0.4
				v2.7H72.3z M73.6,24.4H74c0.4,0,0.7,0,0.9-0.1c0.2-0.1,0.3-0.2,0.4-0.3c0.1-0.1,0.2-0.3,0.2-0.5c0-0.2-0.1-0.4-0.2-0.6
				s-0.3-0.3-0.5-0.3c-0.2,0-0.5-0.1-0.8-0.1h-0.4V24.4z"/>
			<path class="st14" d="M77.8,21.2h1.3v4.5c0,0.3,0,0.5,0,0.6c0,0.1,0.1,0.3,0.1,0.4c0.1,0.2,0.2,0.3,0.4,0.4
				c0.2,0.1,0.3,0.1,0.5,0.1c0.2,0,0.4,0,0.5-0.1c0.2-0.1,0.3-0.2,0.4-0.4c0.1-0.1,0.1-0.2,0.1-0.4s0-0.3,0-0.6v-4.5h1.3v4.5
				c0,0.4,0,0.8-0.1,1.1c-0.1,0.3-0.2,0.6-0.4,0.8c-0.2,0.3-0.5,0.5-0.8,0.6c-0.3,0.2-0.7,0.2-1.1,0.2c-0.4,0-0.8-0.1-1.2-0.3
				c-0.4-0.2-0.6-0.5-0.9-0.8c-0.2-0.4-0.4-0.9-0.4-1.6V21.2z"/>
			<path class="st14" d="M83.9,28.3v-7.1h3.8v1.3h-2.5v1.7h2.4v1.3h-2.4v1.7h2.5v1.3H83.9z"/>
			<path class="st14" d="M89,28.3v-7.1H91c0.5,0,0.9,0,1.2,0.1c0.3,0.1,0.6,0.2,0.8,0.4c0.5,0.4,0.7,1,0.7,1.7
				c0,0.7-0.3,1.3-0.8,1.7c-0.1,0.1-0.3,0.2-0.5,0.3c-0.2,0.1-0.4,0.1-0.6,0.2l1.9,2.6h-1.6l-1.9-2.7v2.7H89z M90.3,24.6h0.6
				c0.5,0,0.9-0.1,1.1-0.3c0.2-0.2,0.3-0.4,0.3-0.8c0-0.4-0.1-0.6-0.4-0.8c-0.2-0.2-0.6-0.2-1.1-0.2h-0.6V24.6z"/>
			<path class="st14" d="M95.5,28.3v-5.8h-1.3v-1.3h4v1.3h-1.3v5.8H95.5z"/>
			<path class="st14" d="M97.8,28.3l3-7.1h1l3,7.1h-1.5l-0.8-1.8h-2.5l-0.8,1.8H97.8z M100.5,25.2h1.5l-0.8-2.2L100.5,25.2z"/>
			<path class="st14" d="M105,26.3h1.4c0.1,0.6,0.4,0.9,1,0.9c0.3,0,0.5-0.1,0.7-0.2s0.3-0.4,0.3-0.6c0-0.3-0.1-0.6-0.4-0.7
				c-0.1-0.1-0.2-0.1-0.3-0.2c-0.1-0.1-0.4-0.2-0.9-0.3c-0.5-0.2-0.8-0.4-1.1-0.8c-0.3-0.3-0.4-0.7-0.4-1.2c0-0.6,0.2-1,0.6-1.4
				c0.4-0.4,0.9-0.6,1.5-0.6c0.3,0,0.7,0.1,1,0.2c0.3,0.1,0.5,0.3,0.7,0.6c0.1,0.2,0.2,0.4,0.3,0.5c0.1,0.2,0.1,0.4,0.1,0.7h-1.4
				c0-0.2-0.1-0.4-0.2-0.6c-0.1-0.1-0.3-0.2-0.5-0.2c-0.2,0-0.4,0.1-0.5,0.2c-0.1,0.1-0.2,0.3-0.2,0.5c0,0.3,0.1,0.5,0.4,0.7
				c0.1,0,0.3,0.1,0.8,0.3c0.4,0.1,0.6,0.2,0.8,0.3s0.3,0.2,0.4,0.3c0.4,0.4,0.6,0.9,0.6,1.5c0,0.6-0.2,1.2-0.7,1.6
				c-0.4,0.4-1,0.7-1.6,0.7c-0.4,0-0.8-0.1-1.1-0.2s-0.6-0.4-0.8-0.7c-0.1-0.2-0.2-0.4-0.3-0.6C105.1,26.8,105.1,26.6,105,26.3z"/>
		</g>
		<g>
			<path class="st14" d="M72.1,37.4l3-7.1h1l3,7.1h-1.5l-0.8-1.8h-2.5l-0.8,1.8H72.1z M74.8,34.3h1.5l-0.8-2.2L74.8,34.3z"/>
			<path class="st14" d="M79.4,30.3h1.3v4.5c0,0.3,0,0.5,0,0.6c0,0.1,0.1,0.3,0.1,0.4c0.1,0.2,0.2,0.3,0.4,0.4
				c0.2,0.1,0.3,0.1,0.5,0.1c0.2,0,0.4,0,0.5-0.1c0.2-0.1,0.3-0.2,0.4-0.4c0.1-0.1,0.1-0.2,0.1-0.4s0-0.3,0-0.6v-4.5h1.3v4.5
				c0,0.4,0,0.8-0.1,1.1c-0.1,0.3-0.2,0.6-0.4,0.8c-0.2,0.3-0.5,0.5-0.8,0.6c-0.3,0.2-0.7,0.2-1.1,0.2c-0.4,0-0.8-0.1-1.2-0.3
				c-0.4-0.2-0.6-0.5-0.9-0.8c-0.2-0.4-0.4-0.9-0.4-1.6V30.3z"/>
			<path class="st14" d="M86.2,37.4v-5.8h-1.3v-1.3h4v1.3h-1.3v5.8H86.2z"/>
			<path class="st14" d="M92.9,30.2c0.5,0,1,0.1,1.4,0.3c0.5,0.2,0.8,0.5,1.2,0.8s0.6,0.7,0.8,1.2c0.2,0.5,0.3,0.9,0.3,1.4
				c0,0.7-0.2,1.3-0.5,1.9c-0.3,0.6-0.8,1-1.3,1.3c-0.6,0.3-1.2,0.5-1.9,0.5c-0.5,0-1-0.1-1.5-0.3c-0.5-0.2-0.9-0.4-1.2-0.8
				c-0.3-0.3-0.6-0.7-0.8-1.2c-0.2-0.5-0.3-0.9-0.3-1.4c0-0.5,0.1-1,0.3-1.4c0.2-0.5,0.5-0.8,0.8-1.2c0.3-0.3,0.7-0.6,1.2-0.8
				S92.4,30.2,92.9,30.2z M92.8,31.4c-0.6,0-1.2,0.2-1.7,0.7c-0.5,0.5-0.7,1-0.7,1.7c0,0.3,0.1,0.7,0.2,0.9c0.1,0.3,0.3,0.6,0.5,0.8
				s0.5,0.4,0.8,0.5c0.3,0.1,0.6,0.2,0.9,0.2c0.7,0,1.2-0.2,1.7-0.7c0.4-0.5,0.7-1,0.7-1.7c0-0.7-0.2-1.3-0.7-1.7
				C94.1,31.7,93.5,31.4,92.8,31.4z"/>
			<path class="st14" d="M97.6,37.4v-7.1h1.8l1.9,5.4l1.9-5.4h1.8v7.1h-1.3v-5.3l-1.9,5.3h-1.1l-1.9-5.3v5.3H97.6z"/>
			<path class="st14" d="M105.8,37.4l3-7.1h1l3,7.1h-1.5l-0.8-1.8H108l-0.8,1.8H105.8z M108.7,29.8l-0.5-0.8l2.2-1.3l0.5,0.9
				L108.7,29.8z M108.5,34.3h1.5l-0.8-2.2L108.5,34.3z"/>
			<path class="st14" d="M113.8,37.4v-5.8h-1.3v-1.3h4v1.3h-1.3v5.8H113.8z"/>
			<path class="st14" d="M117.1,37.4v-7.1h1.3v7.1H117.1z"/>
			<path class="st14" d="M125,35.4h1.5c-0.3,0.6-0.7,1.2-1.3,1.5c-0.6,0.4-1.2,0.6-2,0.6c-0.3,0-0.7,0-1-0.1
				c-0.3-0.1-0.6-0.2-0.9-0.4c-0.3-0.2-0.5-0.4-0.8-0.6s-0.4-0.5-0.6-0.7c-0.2-0.3-0.3-0.6-0.4-0.9c-0.1-0.3-0.1-0.7-0.1-1
				c0-0.5,0.1-1,0.3-1.4c0.2-0.5,0.5-0.8,0.8-1.2s0.7-0.6,1.2-0.8c0.5-0.2,0.9-0.3,1.4-0.3c0.4,0,0.9,0.1,1.3,0.2
				c0.4,0.1,0.8,0.4,1.1,0.6c0.2,0.2,0.4,0.4,0.5,0.6c0.1,0.2,0.3,0.4,0.4,0.7H125c-0.2-0.3-0.5-0.5-0.8-0.7
				c-0.3-0.1-0.6-0.2-1.1-0.2c-0.7,0-1.3,0.3-1.8,0.8c-0.2,0.2-0.3,0.5-0.4,0.7c-0.1,0.3-0.2,0.6-0.2,0.9c0,0.4,0.1,0.8,0.3,1.2
				s0.5,0.7,0.9,0.9c0.4,0.2,0.8,0.3,1.2,0.3c0.3,0,0.6-0.1,0.9-0.2C124.4,35.9,124.7,35.7,125,35.4z"/>
			<path class="st14" d="M126.7,37.4l3-7.1h1l3,7.1h-1.5l-0.8-1.8h-2.5l-0.8,1.8H126.7z M129.4,34.3h1.5l-0.8-2.2L129.4,34.3z"/>
			<path class="st14" d="M133.9,35.4h1.4c0.1,0.6,0.4,0.9,1,0.9c0.3,0,0.5-0.1,0.7-0.2s0.3-0.4,0.3-0.6c0-0.3-0.1-0.6-0.4-0.7
				c-0.1-0.1-0.2-0.1-0.3-0.2c-0.1-0.1-0.4-0.2-0.9-0.3c-0.5-0.2-0.8-0.4-1.1-0.8c-0.3-0.3-0.4-0.7-0.4-1.2c0-0.6,0.2-1,0.6-1.4
				c0.4-0.4,0.9-0.6,1.5-0.6c0.3,0,0.7,0.1,1,0.2c0.3,0.1,0.5,0.3,0.7,0.6c0.1,0.2,0.2,0.4,0.3,0.5c0.1,0.2,0.1,0.4,0.1,0.7H137
				c0-0.2-0.1-0.4-0.2-0.6c-0.1-0.1-0.3-0.2-0.5-0.2c-0.2,0-0.4,0.1-0.5,0.2c-0.1,0.1-0.2,0.3-0.2,0.5c0,0.3,0.1,0.5,0.4,0.7
				c0.1,0,0.3,0.1,0.8,0.3c0.4,0.1,0.6,0.2,0.8,0.3s0.3,0.2,0.4,0.3c0.4,0.4,0.6,0.9,0.6,1.5c0,0.6-0.2,1.2-0.7,1.6
				c-0.4,0.4-1,0.7-1.6,0.7c-0.4,0-0.8-0.1-1.1-0.2s-0.6-0.4-0.8-0.7c-0.1-0.2-0.2-0.4-0.3-0.6C134,35.9,133.9,35.6,133.9,35.4z"/>
		</g>
		<g>
			<path class="st14" d="M72.1,47v-7.1h1.6c1.2,0,2,0.2,2.6,0.6c0.5,0.3,0.8,0.7,1.1,1.2c0.3,0.5,0.4,1.1,0.4,1.8
				c0,0.7-0.2,1.4-0.5,1.9c-0.3,0.6-0.8,1-1.3,1.2c-0.3,0.1-0.6,0.2-0.9,0.3S74.3,47,73.8,47H72.1z M73.5,45.7h0.3
				c0.8,0,1.3-0.1,1.7-0.3c0.3-0.2,0.6-0.4,0.8-0.8c0.2-0.4,0.3-0.7,0.3-1.2c0-0.5-0.1-0.9-0.3-1.2c-0.2-0.4-0.5-0.6-0.8-0.8
				c-0.2-0.1-0.4-0.2-0.7-0.2c-0.2,0-0.6-0.1-1-0.1h-0.3V45.7z"/>
			<path class="st14" d="M78.9,47v-7.1h3.8v1.3h-2.5v1.7h2.4V44h-2.4v1.7h2.5V47H78.9z"/>
			<path class="st14" d="M88.7,47l-2.8-7.1h1.4l1.9,5.4l1.9-5.4h1.4L89.8,47H88.7z"/>
			<path class="st14" d="M93.3,47v-7.1h3.8v1.3h-2.5v1.7H97V44h-2.4v1.7h2.5V47H93.3z"/>
			<path class="st14" d="M98.3,47v-7.1h2.1c0.5,0,0.9,0,1.2,0.1c0.3,0.1,0.6,0.2,0.8,0.4c0.5,0.4,0.7,1,0.7,1.7
				c0,0.7-0.3,1.3-0.8,1.7c-0.1,0.1-0.3,0.2-0.5,0.3c-0.2,0.1-0.4,0.1-0.6,0.2l1.9,2.6h-1.6l-1.9-2.7V47H98.3z M99.6,43.2h0.6
				c0.5,0,0.9-0.1,1.1-0.3c0.2-0.2,0.3-0.4,0.3-0.8c0-0.4-0.1-0.6-0.4-0.8c-0.2-0.2-0.6-0.2-1.1-0.2h-0.6V43.2z"/>
			<path class="st14" d="M103.5,47l3-7.1h1l3,7.1H109l-0.8-1.8h-2.5l-0.8,1.8H103.5z M106.2,43.9h1.5l-0.8-2.2L106.2,43.9z"/>
			<path class="st14" d="M115.8,45h1.5c-0.3,0.6-0.7,1.2-1.3,1.5c-0.6,0.4-1.2,0.6-2,0.6c-0.3,0-0.7,0-1-0.1
				c-0.3-0.1-0.6-0.2-0.9-0.4c-0.3-0.2-0.5-0.4-0.8-0.6s-0.4-0.5-0.6-0.7c-0.2-0.3-0.3-0.6-0.4-0.9c-0.1-0.3-0.1-0.7-0.1-1
				c0-0.5,0.1-1,0.3-1.4c0.2-0.5,0.5-0.8,0.8-1.2s0.7-0.6,1.2-0.8c0.5-0.2,0.9-0.3,1.4-0.3c0.4,0,0.9,0.1,1.3,0.2
				c0.4,0.1,0.8,0.4,1.1,0.6c0.2,0.2,0.4,0.4,0.5,0.6c0.1,0.2,0.3,0.4,0.4,0.7h-1.5c-0.2-0.3-0.5-0.5-0.8-0.7
				c-0.3-0.1-0.6-0.2-1.1-0.2c-0.7,0-1.3,0.3-1.8,0.8c-0.2,0.2-0.3,0.5-0.4,0.7c-0.1,0.3-0.2,0.6-0.2,0.9c0,0.4,0.1,0.8,0.3,1.2
				s0.5,0.7,0.9,0.9c0.4,0.2,0.8,0.3,1.2,0.3c0.3,0,0.6-0.1,0.9-0.2C115.3,45.5,115.5,45.3,115.8,45z"/>
			<path class="st14" d="M118.4,47v-7.1h2.1c0.5,0,0.9,0,1.2,0.1c0.3,0.1,0.6,0.2,0.8,0.4c0.5,0.4,0.7,1,0.7,1.7
				c0,0.7-0.3,1.3-0.8,1.7c-0.1,0.1-0.3,0.2-0.5,0.3c-0.2,0.1-0.4,0.1-0.6,0.2l1.9,2.6h-1.6l-1.9-2.7V47H118.4z M119.7,43.2h0.6
				c0.5,0,0.9-0.1,1.1-0.3c0.2-0.2,0.3-0.4,0.3-0.8c0-0.4-0.1-0.6-0.4-0.8c-0.2-0.2-0.6-0.2-1.1-0.2h-0.6V43.2z"/>
			<path class="st14" d="M124.2,39.8h1.3v4.5c0,0.3,0,0.5,0,0.6c0,0.1,0.1,0.3,0.1,0.4c0.1,0.2,0.2,0.3,0.4,0.4
				c0.2,0.1,0.3,0.1,0.5,0.1c0.2,0,0.4,0,0.5-0.1c0.2-0.1,0.3-0.2,0.4-0.4c0.1-0.1,0.1-0.2,0.1-0.4s0-0.3,0-0.6v-4.5h1.3v4.5
				c0,0.4,0,0.8-0.1,1.1c-0.1,0.3-0.2,0.6-0.4,0.8c-0.2,0.3-0.5,0.5-0.8,0.6c-0.3,0.2-0.7,0.2-1.1,0.2c-0.4,0-0.8-0.1-1.2-0.3
				c-0.4-0.2-0.6-0.5-0.9-0.8c-0.2-0.4-0.4-0.9-0.4-1.6V39.8z"/>
			<path class="st14" d="M130,45.8l2.7-4.7h-2.5v-1.3h4.1V41l-2.7,4.7h2.9V47H130V45.8z"/>
		</g>
	</g>
</g>
</svg>
