<svg id="Capa_1" data-name="Capa 1" xmlns="http://www.w3.org/2000/svg" viewBox="0 0 89.15 43.01"><defs><style>.cls-1{fill:#231f20;}.cls-2{fill:#bc102b;}</style></defs><title>Mesa de trabajo 5</title><path class="cls-1" d="M30.64,41a.32.32,0,0,1,.39.22.26.26,0,0,1-.22.35s.39-.39-.17-.57"/><polygon class="cls-1" points="7.25 2.87 7.25 43.01 3.81 43.01 3.81 4.01 7.25 2.87"/><polygon class="cls-1" points="11.55 4.88 11.55 6.31 24.45 9.75 24.45 36.7 28.18 38.14 28.18 9.46 11.55 4.88"/><polyline class="cls-1" points="25.03 14.91 15.28 12.62 25.32 15.77"/><polyline class="cls-1" points="25.03 21.51 15.28 19.21 25.32 22.37"/><polyline class="cls-1" points="25.03 28.1 15.28 25.81 25.32 28.96"/><polygon class="cls-1" points="20.15 10.9 20.73 10.9 20.73 10.32 17.28 9.46 20.15 10.32 20.15 10.9"/><polygon class="cls-1" points="8.11 33.84 8.11 43.01 9.54 43.01 9.54 36.7 8.11 33.84"/><path class="cls-1" d="M11.84,34.41l-3.16-.86,1.44,3.15V43H13V37Zm-.15,8.18s1.05-.75-.18-1.37a.73.73,0,0,1,.82.65.61.61,0,0,1-.64.72m.11-2.51s.91-.91-.4-1.32a.72.72,0,0,1,.91.51.61.61,0,0,1-.51.81"/><polygon class="cls-1" points="12.7 34.41 13.56 36.99 13.56 43.01 29.04 43.01 29.04 40.72 28.18 39 12.7 34.41"/><path class="cls-1" d="M31.05,40.15l-2.29-.86.57,1.43V43h2.29V41.29Zm-.28,2.44s.42-.33-.08-.58a.31.31,0,0,1,.35.27.26.26,0,0,1-.27.31"/><path class="cls-2" d="M17,1.15,16.71,0l3.16.86L17.36,2.79l-.19-1S7,3,2.08,12.13A13.52,13.52,0,0,0,3.81,26.51v1.06s-6.69-6.23-2.34-15.95c0,0,3.61-8.19,15.53-10.47"/><path class="cls-2" d="M28.11,32.38v.81s17.11,4.25,57.42,3v-.71S49,36.84,28.11,32.38"/><path class="cls-1" d="M32.24,15.61V9.51h1.51a5.05,5.05,0,0,1,1,.07,1.76,1.76,0,0,1,.63.24,1.66,1.66,0,0,1,.58.65,2.11,2.11,0,0,1,.2.92,2.19,2.19,0,0,1-.23,1,1.53,1.53,0,0,1-.62.66,1.77,1.77,0,0,1-.6.2,7.46,7.46,0,0,1-1,0h-.36v2.32Zm1.13-3.4h.33a3,3,0,0,0,.78-.08.73.73,0,0,0,.38-.26.77.77,0,0,0,.14-.45.89.89,0,0,0-.14-.5.67.67,0,0,0-.39-.27,3.2,3.2,0,0,0-.72-.06h-.38Z"/><path class="cls-1" d="M37,9.51H38.1v3.86a3.27,3.27,0,0,0,0,.52.93.93,0,0,0,.12.33.84.84,0,0,0,.32.3,1,1,0,0,0,.92,0,.77.77,0,0,0,.32-.3.93.93,0,0,0,.12-.33,3.27,3.27,0,0,0,0-.52V9.51h1.13v3.86a3.53,3.53,0,0,1-.1.93,2.1,2.1,0,0,1-.33.67,2,2,0,0,1-.72.55,2.19,2.19,0,0,1-.91.2,2.08,2.08,0,0,1-1-.25,1.89,1.89,0,0,1-.73-.7,2.69,2.69,0,0,1-.31-1.4Z"/><path class="cls-1" d="M42.26,15.61V9.51h3.28v1.08H43.39V12h2.06v1.08H43.39v1.42h2.15v1.08Z"/><path class="cls-1" d="M46.59,15.61V9.51h1.76a4,4,0,0,1,1,.11,1.68,1.68,0,0,1,.68.37,1.9,1.9,0,0,1,.6,1.48A1.77,1.77,0,0,1,50,12.93a1.7,1.7,0,0,1-.39.25,3.37,3.37,0,0,1-.54.18l1.65,2.25h-1.4l-1.6-2.34v2.34Zm1.13-3.19h.55a1.62,1.62,0,0,0,1-.22.82.82,0,0,0,.29-.7.83.83,0,0,0-.31-.71,1.72,1.72,0,0,0-1-.2h-.51Z"/><path class="cls-1" d="M52.18,15.61v-5H51.05V9.51h3.39v1.08H53.31v5Z"/><path class="cls-1" d="M54.19,15.61l2.55-6.1h.89l2.56,6.1H58.94L58.29,14H56.12l-.68,1.57ZM56.53,13h1.31l-.66-1.85Z"/><path class="cls-1" d="M60.4,13.87h1.18a.75.75,0,0,0,.83.76.86.86,0,0,0,.6-.21.67.67,0,0,0,.22-.53.75.75,0,0,0-.3-.64,1.61,1.61,0,0,0-.28-.17l-.75-.28a2.11,2.11,0,0,1-.95-.66,1.6,1.6,0,0,1-.33-1,1.65,1.65,0,0,1,.52-1.23A1.74,1.74,0,0,1,62.4,9.4a1.94,1.94,0,0,1,.83.18,1.7,1.7,0,0,1,.63.52,1.6,1.6,0,0,1,.25.46,1.89,1.89,0,0,1,.1.58H63a.71.71,0,0,0-.2-.48.61.61,0,0,0-.45-.17.63.63,0,0,0-.45.17.6.6,0,0,0-.17.45.62.62,0,0,0,.35.56,4,4,0,0,0,.66.27,5.61,5.61,0,0,1,.66.28,1.89,1.89,0,0,1,.38.27,1.66,1.66,0,0,1,.54,1.27,1.93,1.93,0,0,1-2,2,2.26,2.26,0,0,1-.94-.2,1.81,1.81,0,0,1-.7-.58,2.27,2.27,0,0,1-.26-.48A2.83,2.83,0,0,1,60.4,13.87Z"/><path class="cls-1" d="M32.11,23.41l2.55-6.1h.89l2.56,6.1H36.87l-.66-1.58H34l-.68,1.58Zm2.34-2.66h1.31l-.65-1.85Z"/><path class="cls-1" d="M38.36,17.31h1.13v3.86a3.36,3.36,0,0,0,0,.52.93.93,0,0,0,.12.33.84.84,0,0,0,.32.3,1,1,0,0,0,.45.11,1,1,0,0,0,.47-.11.92.92,0,0,0,.32-.3.93.93,0,0,0,.12-.33,3.36,3.36,0,0,0,0-.52V17.31h1.13v3.86a3.85,3.85,0,0,1-.1.92,1.89,1.89,0,0,1-.34.68,1.86,1.86,0,0,1-.71.55,2.21,2.21,0,0,1-.92.2,2.08,2.08,0,0,1-1-.26,1.9,1.9,0,0,1-.74-.69,2.8,2.8,0,0,1-.3-1.4Z"/><path class="cls-1" d="M44.25,23.41v-5H43.12V17.31h3.4v1.08H45.38v5Z"/><path class="cls-1" d="M50,17.2a3,3,0,0,1,1.22.25,3.19,3.19,0,0,1,1,.67,3.24,3.24,0,0,1,.67,1,3.21,3.21,0,0,1,.25,1.22A3.17,3.17,0,0,1,52.7,22a3,3,0,0,1-1.14,1.14,3.1,3.1,0,0,1-1.59.42,3.18,3.18,0,0,1-1.26-.25,3,3,0,0,1-1-.66,3.17,3.17,0,0,1-.93-2.25,3.22,3.22,0,0,1,.92-2.25,3.33,3.33,0,0,1,1-.67A3.38,3.38,0,0,1,50,17.2Zm-.07,1.09a1.94,1.94,0,0,0-1.43.6,2,2,0,0,0-.59,1.46,2.26,2.26,0,0,0,.16.82,2.31,2.31,0,0,0,.44.66,2.06,2.06,0,0,0,.66.44,2.17,2.17,0,0,0,.81.16,1.93,1.93,0,0,0,1.44-.59,2.16,2.16,0,0,0,0-3A2,2,0,0,0,49.91,18.29Z"/><path class="cls-1" d="M54,23.41v-6.1h1.55l1.64,4.62,1.63-4.62h1.55v6.1H59.24V18.83l-1.59,4.58h-.93l-1.59-4.58v4.58Z"/><path class="cls-1" d="M61,23.41l2.55-6.1h.89L67,23.41H65.77l-.66-1.58H62.94l-.68,1.58Zm2.55-6.51-.42-.64L65,15.15l.44.76Zm-.21,3.85h1.31L64,18.9Z"/><path class="cls-1" d="M67.89,23.41v-5H66.76V17.31h3.4v1.08H69v5Z"/><path class="cls-1" d="M70.8,23.41v-6.1h1.13v6.1Z"/><path class="cls-1" d="M77.51,21.71h1.34A2.89,2.89,0,0,1,77.73,23a3.07,3.07,0,0,1-1.7.49,3.49,3.49,0,0,1-.86-.11,3.12,3.12,0,0,1-.77-.32A3.25,3.25,0,0,1,73.25,22a3.21,3.21,0,0,1-.32-.76,3.05,3.05,0,0,1-.11-.85,3,3,0,0,1,.25-1.22,3,3,0,0,1,.67-1,3.19,3.19,0,0,1,1-.67A3,3,0,0,1,76,17.2a3.2,3.2,0,0,1,2.08.74,2.92,2.92,0,0,1,.46.49,3.52,3.52,0,0,1,.36.63H77.58a2,2,0,0,0-.69-.59,2.11,2.11,0,0,0-.91-.18,1.86,1.86,0,0,0-1.52.67,1.92,1.92,0,0,0-.37.64,2.21,2.21,0,0,0-.14.75,2,2,0,0,0,.28,1,2,2,0,0,0,1.77,1,1.8,1.8,0,0,0,.79-.17A2.56,2.56,0,0,0,77.51,21.71Z"/><path class="cls-1" d="M79,23.41l2.55-6.1h.89L85,23.41H83.73l-.65-1.58H80.91l-.68,1.58Zm2.34-2.66h1.31L82,18.9Z"/><path class="cls-1" d="M85.19,21.67h1.18a.75.75,0,0,0,.83.76.84.84,0,0,0,.6-.21.69.69,0,0,0,.23-.54.75.75,0,0,0-.31-.63,1.17,1.17,0,0,0-.28-.17l-.75-.28a2.19,2.19,0,0,1-1-.66,1.61,1.61,0,0,1-.33-1,1.69,1.69,0,0,1,.52-1.23,1.78,1.78,0,0,1,1.26-.5,1.94,1.94,0,0,1,.83.18,1.77,1.77,0,0,1,.63.51,1.65,1.65,0,0,1,.25.47,1.88,1.88,0,0,1,.1.57H87.83a.7.7,0,0,0-.2-.47.57.57,0,0,0-.45-.17.64.64,0,0,0-.45.17.6.6,0,0,0-.17.45.63.63,0,0,0,.35.56,5.42,5.42,0,0,0,.66.27,3.88,3.88,0,0,1,.66.28,1.89,1.89,0,0,1,.38.27,1.64,1.64,0,0,1,.54,1.27,1.93,1.93,0,0,1-2,2,2.15,2.15,0,0,1-.94-.21,1.77,1.77,0,0,1-.7-.57,2.27,2.27,0,0,1-.26-.48A2.83,2.83,0,0,1,85.19,21.67Z"/><path class="cls-1" d="M32.14,31.61v-6.1h1.4a4.06,4.06,0,0,1,2.22.48,2.54,2.54,0,0,1,.94,1.06A3.43,3.43,0,0,1,37,28.57a3.36,3.36,0,0,1-.41,1.67,2.52,2.52,0,0,1-1.13,1.06,3.41,3.41,0,0,1-.82.24,6.81,6.81,0,0,1-1.11.07Zm1.13-1.08h.25A3.3,3.3,0,0,0,35,30.26a1.57,1.57,0,0,0,.64-.68,2.12,2.12,0,0,0,.24-1,2.16,2.16,0,0,0-.26-1.06,1.65,1.65,0,0,0-.71-.7,2.07,2.07,0,0,0-.58-.17,6.14,6.14,0,0,0-.85-.05h-.22Z"/><path class="cls-1" d="M37.91,31.61v-6.1h3.28v1.08H39V28H41.1v1.08H39v1.42h2.15v1.08Z"/><path class="cls-1" d="M46.38,31.61,44,25.51h1.19l1.64,4.64,1.64-4.64h1.19l-2.36,6.1Z"/><path class="cls-1" d="M50.28,31.61v-6.1h3.28v1.08H51.41V28h2.06v1.08H51.41v1.42h2.15v1.08Z"/><path class="cls-1" d="M54.61,31.61v-6.1h1.76a4,4,0,0,1,1,.11,1.7,1.7,0,0,1,.68.38,1.88,1.88,0,0,1,.6,1.47,1.78,1.78,0,0,1-1,1.71,3.37,3.37,0,0,1-.54.18l1.65,2.25h-1.4l-1.6-2.34v2.34Zm1.13-3.19h.56a1.61,1.61,0,0,0,1-.22.82.82,0,0,0,.29-.7.84.84,0,0,0-.31-.71,1.72,1.72,0,0,0-1-.2h-.51Z"/><path class="cls-1" d="M59.07,31.61l2.54-6.1h.89l2.56,6.1H63.82L63.16,30H61l-.67,1.57ZM61.41,29h1.3l-.65-1.86Z"/><path class="cls-1" d="M69.67,29.91H71a2.91,2.91,0,0,1-1.12,1.33,3.09,3.09,0,0,1-1.7.48,3,3,0,0,1-.85-.11,2.78,2.78,0,0,1-.77-.32,3.13,3.13,0,0,1-.65-.5,3.07,3.07,0,0,1-.5-.64,2.72,2.72,0,0,1-.32-.76,3.06,3.06,0,0,1-.12-.85,3.21,3.21,0,0,1,.25-1.22,3.1,3.1,0,0,1,1.67-1.67,3.21,3.21,0,0,1,1.22-.25,3.45,3.45,0,0,1,1.11.19,3.25,3.25,0,0,1,1,.55,3,3,0,0,1,.47.5,3.18,3.18,0,0,1,.35.62H69.74a2.09,2.09,0,0,0-.69-.59,2.16,2.16,0,0,0-.92-.18,1.89,1.89,0,0,0-1.52.67,2.29,2.29,0,0,0-.5,1.39,2.1,2.1,0,0,0,.27,1,2.18,2.18,0,0,0,.75.76,2,2,0,0,0,1,.28,1.73,1.73,0,0,0,.79-.17A2.56,2.56,0,0,0,69.67,29.91Z"/><path class="cls-1" d="M71.88,31.61v-6.1h1.77a3.9,3.9,0,0,1,1,.11,1.74,1.74,0,0,1,.69.38,1.88,1.88,0,0,1,.6,1.47,1.78,1.78,0,0,1-.67,1.47,1.73,1.73,0,0,1-.38.24,3.94,3.94,0,0,1-.55.18L76,31.61H74.62L73,29.27v2.34ZM73,28.42h.55a1.58,1.58,0,0,0,1-.22.8.8,0,0,0,.3-.7.84.84,0,0,0-.32-.71,1.7,1.7,0,0,0-1-.2H73Z"/><path class="cls-1" d="M76.87,25.51H78v3.87a3.21,3.21,0,0,0,0,.51.93.93,0,0,0,.12.33.84.84,0,0,0,.32.3,1,1,0,0,0,.45.11,1,1,0,0,0,.47-.11.77.77,0,0,0,.32-.3.93.93,0,0,0,.12-.33,3.21,3.21,0,0,0,0-.51V25.51H81v3.87a3.5,3.5,0,0,1-.1.92,1.85,1.85,0,0,1-.34.67,1.77,1.77,0,0,1-.71.55,2.19,2.19,0,0,1-1.93-.05,1.92,1.92,0,0,1-.74-.7,2.78,2.78,0,0,1-.3-1.39Z"/><path class="cls-1" d="M81.82,30.65l2.32-4.06H82V25.51h3.53v1l-2.3,4h2.46v1.08H81.82Z"/></svg>