<svg id="Capa_1" data-name="Capa 1" xmlns="http://www.w3.org/2000/svg" xmlns:xlink="http://www.w3.org/1999/xlink" viewBox="0 0 43.3 83.67"><defs><style>.cls-1,.cls-14,.cls-15,.cls-7{fill:none;}.cls-2{clip-path:url(#clip-path);}.cls-3{clip-path:url(#clip-path-3);}.cls-4{opacity:0.6;}.cls-5{clip-path:url(#clip-path-4);}.cls-6{clip-path:url(#clip-path-5);}.cls-7{stroke:#e5e4e4;stroke-width:0.75px;}.cls-14,.cls-15,.cls-7{stroke-miterlimit:10;}.cls-8{clip-path:url(#clip-path-6);}.cls-9{clip-path:url(#clip-path-7);}.cls-10{clip-path:url(#clip-path-8);}.cls-11{fill:#b7b7b7;}.cls-12{fill:gray;}.cls-13{fill:#666;}.cls-14,.cls-15{stroke:#666;}.cls-14{stroke-width:0.16px;}.cls-15{stroke-width:0.72px;}</style><clipPath id="clip-path"><rect class="cls-1" x="711.16" y="-574.28" width="1920" height="3660"/></clipPath><clipPath id="clip-path-3"><rect class="cls-1" x="-1472.4" y="95.33" width="1917.36" height="702"/></clipPath><clipPath id="clip-path-4"><rect class="cls-1" x="-2148.42" y="-149.25" width="3365.43" height="1241.53"/></clipPath><clipPath id="clip-path-5"><rect class="cls-1" x="-2148.43" y="-149.25" width="3365.43" height="1241.53"/></clipPath><clipPath id="clip-path-6"><rect class="cls-1" x="712.6" y="116.33" width="1917.36" height="702"/></clipPath><clipPath id="clip-path-7"><rect class="cls-1" x="36.57" y="-128.25" width="3365.43" height="1241.53"/></clipPath><clipPath id="clip-path-8"><rect class="cls-1" x="36.57" y="-128.25" width="3365.43" height="1241.53"/></clipPath></defs><title>Motores industiales</title><g class="cls-2"><g class="cls-2"><g class="cls-3"><g class="cls-4"><g class="cls-5"><g class="cls-6"><line class="cls-7" x1="-516.76" y1="1092.02" x2="724.24" y2="-148.98"/><line class="cls-7" x1="-485.98" y1="1092.02" x2="755.02" y2="-148.98"/><line class="cls-7" x1="-455.2" y1="1092.02" x2="785.8" y2="-148.98"/><line class="cls-7" x1="-424.42" y1="1092.02" x2="816.58" y2="-148.98"/><line class="cls-7" x1="-393.64" y1="1092.02" x2="847.36" y2="-148.98"/><line class="cls-7" x1="-362.86" y1="1092.02" x2="878.15" y2="-148.98"/><line class="cls-7" x1="-332.08" y1="1092.02" x2="908.92" y2="-148.98"/><line class="cls-7" x1="-301.3" y1="1092.02" x2="939.71" y2="-148.98"/><line class="cls-7" x1="-270.52" y1="1092.02" x2="970.49" y2="-148.98"/><line class="cls-7" x1="-239.74" y1="1092.02" x2="1001.27" y2="-148.98"/><line class="cls-7" x1="-208.95" y1="1092.02" x2="1032.05" y2="-148.98"/><line class="cls-7" x1="-178.17" y1="1092.02" x2="1062.83" y2="-148.98"/><line class="cls-7" x1="-147.39" y1="1092.02" x2="1093.61" y2="-148.98"/><line class="cls-7" x1="-116.61" y1="1092.02" x2="1124.39" y2="-148.98"/><line class="cls-7" x1="-85.83" y1="1092.02" x2="1155.17" y2="-148.98"/><line class="cls-7" x1="-55.05" y1="1092.02" x2="1185.96" y2="-148.98"/><line class="cls-7" x1="-24.27" y1="1092.02" x2="1216.74" y2="-148.98"/></g></g></g></g></g><g class="cls-8"><g class="cls-4"><g class="cls-9"><g class="cls-10"><line class="cls-7" x1="36.84" y1="1113.02" x2="1277.85" y2="-127.98"/></g></g></g></g></g><rect class="cls-11" x="16.87" y="27.58" width="23.29" height="31.88"/><rect class="cls-12" x="14.88" y="58.09" width="25.9" height="13.7"/><path class="cls-13" d="M42.52,66.18a3.36,3.36,0,1,1-3.36-3.36,3.35,3.35,0,0,1,3.36,3.36"/><rect class="cls-13" x="0.06" y="0.53" width="42.46" height="33.03"/><rect class="cls-11" width="37.11" height="19.8"/><path class="cls-12" d="M5.85,16.68a2.24,2.24,0,1,1-2.24-2.24,2.24,2.24,0,0,1,2.24,2.24"/><path class="cls-12" d="M17.68,6.35a5,5,0,1,1-5-5,5,5,0,0,1,5,5"/><rect x="2.43" y="33.56" width="14.44" height="5.35"/><path class="cls-13" d="M16.87,51H14.2A3.18,3.18,0,0,1,11,47.81v-8.9h5.85Z"/><line class="cls-14" x1="19.74" y1="33.56" x2="19.74" y2="58.09"/><line class="cls-14" x1="20.92" y1="33.56" x2="20.92" y2="58.09"/><line class="cls-14" x1="22.1" y1="33.56" x2="22.1" y2="58.09"/><line class="cls-14" x1="23.28" y1="33.56" x2="23.28" y2="58.09"/><line class="cls-14" x1="29.39" y1="33.56" x2="29.39" y2="58.09"/><line class="cls-14" x1="30.63" y1="33.56" x2="30.63" y2="58.09"/><line class="cls-14" x1="31.88" y1="33.56" x2="31.88" y2="58.09"/><line class="cls-14" x1="33.49" y1="33.56" x2="33.49" y2="58.09"/><line class="cls-14" x1="37.98" y1="33.56" x2="37.98" y2="58.09"/><line class="cls-14" x1="39.22" y1="33.56" x2="39.22" y2="58.09"/><path class="cls-15" d="M42.94,70.41c0,2-.48,3.59-1.07,3.59s-1.08-1.61-1.08-3.59.48-3.58,1.08-3.58S42.94,68.43,42.94,70.41Z"/><path class="cls-15" d="M42.94,76.15c0,2-.48,3.58-1.07,3.58s-1.08-1.6-1.08-3.58.48-3.59,1.08-3.59S42.94,74.17,42.94,76.15Z"/><path class="cls-15" d="M42.94,79.73c0,2-.48,3.58-1.07,3.58s-1.08-1.6-1.08-3.58.48-3.58,1.08-3.58S42.94,77.75,42.94,79.73Z"/></svg>