<svg id="Capa_1" data-name="Capa 1" xmlns="http://www.w3.org/2000/svg" xmlns:xlink="http://www.w3.org/1999/xlink" viewBox="0 0 82.81 72.89"><defs><style>.cls-1,.cls-11,.cls-7,.cls-9{fill:none;}.cls-2{clip-path:url(#clip-path);}.cls-3{clip-path:url(#clip-path-3);}.cls-4{opacity:0.6;}.cls-5{clip-path:url(#clip-path-4);}.cls-6{clip-path:url(#clip-path-5);}.cls-7{stroke:#e5e4e4;stroke-width:0.75px;}.cls-11,.cls-7,.cls-9{stroke-miterlimit:10;}.cls-8{fill:#666;}.cls-9{stroke:#ddd;stroke-width:0.76px;}.cls-10{fill:#b7b7b7;}.cls-11{stroke:#666;stroke-width:0.68px;}.cls-12{fill:gray;}</style><clipPath id="clip-path"><rect class="cls-1" x="973.49" y="-375.57" width="1920" height="3660"/></clipPath><clipPath id="clip-path-3"><rect class="cls-1" x="-1210.06" y="294.04" width="1917.36" height="702"/></clipPath><clipPath id="clip-path-4"><rect class="cls-1" x="-1886.09" y="49.46" width="3365.43" height="1241.53"/></clipPath><clipPath id="clip-path-5"><rect class="cls-1" x="-1886.09" y="49.46" width="3365.43" height="1241.53"/></clipPath></defs><title>Puertas rapidas</title><g class="cls-2"><g class="cls-2"><g class="cls-3"><g class="cls-4"><g class="cls-5"><g class="cls-6"><line class="cls-7" x1="-254.43" y1="1290.73" x2="986.57" y2="49.72"/><line class="cls-7" x1="-223.65" y1="1290.73" x2="1017.36" y2="49.72"/><line class="cls-7" x1="-192.87" y1="1290.73" x2="1048.14" y2="49.72"/><line class="cls-7" x1="-162.09" y1="1290.73" x2="1078.92" y2="49.72"/><line class="cls-7" x1="-131.3" y1="1290.73" x2="1109.7" y2="49.72"/><line class="cls-7" x1="-100.52" y1="1290.73" x2="1140.48" y2="49.72"/><line class="cls-7" x1="-69.74" y1="1290.73" x2="1171.26" y2="49.72"/><line class="cls-7" x1="-38.96" y1="1290.73" x2="1202.04" y2="49.72"/><line class="cls-7" x1="-8.18" y1="1290.73" x2="1232.82" y2="49.72"/><line class="cls-7" x1="22.6" y1="1290.73" x2="1263.6" y2="49.72"/><line class="cls-7" x1="53.38" y1="1290.73" x2="1294.39" y2="49.72"/></g></g></g></g></g></g><rect class="cls-8" x="16.71" y="8.32" width="49.38" height="64.58"/><line class="cls-9" x1="22.79" y1="66.06" x2="60.78" y2="66.06"/><line class="cls-9" x1="22.79" y1="56.56" x2="60.78" y2="56.56"/><line class="cls-9" x1="22.79" y1="47.06" x2="60.78" y2="47.06"/><line class="cls-9" x1="22.79" y1="37.57" x2="60.78" y2="37.57"/><line class="cls-9" x1="22.79" y1="28.07" x2="60.78" y2="28.07"/><line class="cls-9" x1="22.79" y1="18.57" x2="60.78" y2="18.57"/><polygon class="cls-10" points="73.31 0.34 73.31 72.51 65.72 72.51 65.72 7.94 16.34 7.94 16.34 72.51 8.74 72.51 8.74 0.34 73.31 0.34"/><polygon class="cls-11" points="73.31 0.34 73.31 72.51 65.72 72.51 65.72 7.94 16.34 7.94 16.34 72.51 8.74 72.51 8.74 0.34 73.31 0.34"/><rect class="cls-12" y="5.28" width="82.81" height="6.84"/></svg>